<?xml version="1.0" encoding="UTF-8"?>
<svg width="24px" height="24px" viewBox="0 0 24 24" version="1.1" xmlns="http://www.w3.org/2000/svg" xmlns:xlink="http://www.w3.org/1999/xlink">
    <!-- Generator: Sketch 51.2 (57519) - http://www.bohemiancoding.com/sketch -->
    <title>Icon_Settings</title>
    <desc>Created with Sketch.</desc>
    <defs></defs>
    <g id="Icon_Settings" stroke="none" stroke-width="1" fill="none" fill-rule="evenodd" opacity="0.4">
        <g fill-rule="nonzero">
            <path d="M21,15 C22.65675,15 24,13.65675 24,12 C24,10.34325 22.65675,9 21,9 L20.48775,9 C20.38125,8.699 20.2595,8.40525 20.12275,8.11975 L20.48525,7.7575 C21.65675,6.58575 21.65675,4.6865 20.48525,3.51475 C19.3135,2.34325 17.41425,2.34325 16.2425,3.51475 L15.88025,3.87725 C15.5945,3.7405 15.301,3.61875 15,3.51225 L15,3 C15,1.34325 13.65675,0 12,0 C10.34325,0 9,1.34325 9,3 L9,3.51225 C8.699,3.61875 8.40525,3.7405 8.11975,3.87725 L7.7575,3.51475 C6.58575,2.34325 4.6865,2.34325 3.51475,3.51475 C2.34325,4.6865 2.34325,6.58575 3.51475,7.7575 L3.87725,8.11975 C3.7405,8.4055 3.61875,8.699 3.51225,9 L3,9 C1.34325,9 0,10.34325 0,12 C0,13.65675 1.34325,15 3,15 L3.51225,15 C3.61875,15.301 3.7405,15.59475 3.87725,15.88025 L3.51475,16.2425 C2.34325,17.41425 2.34325,19.3135 3.51475,20.48525 C4.6865,21.65675 6.58575,21.65675 7.7575,20.48525 L8.11975,20.12275 C8.4055,20.2595 8.699,20.38125 9,20.48775 L9,21 C9,22.65675 10.34325,24 12,24 C13.65675,24 15,22.65675 15,21 L15,20.48775 C15.301,20.38125 15.59475,20.2595 15.88025,20.12275 L16.2425,20.48525 C17.41425,21.65675 19.3135,21.65675 20.48525,20.48525 C21.65675,19.3135 21.65675,17.41425 20.48525,16.2425 L20.12275,15.88025 C20.2595,15.5945 20.38125,15.301 20.48775,15 L21,15 Z M18.92925,13 C18.7595,14.186 18.2925,15.276 17.6065,16.19225 L19.03175,17.61775 L19.071,17.65675 C19.4615,18.04725 19.4615,18.68075 19.071,19.071 C18.6805,19.46125 18.04725,19.4615 17.65675,19.071 L17.61775,19.03175 L16.19225,17.6065 C15.276,18.2925 14.186,18.7595 13,18.92925 L13,21 C13,21.55225 12.55225,22 12,22 C11.44775,22 11,21.55225 11,21 L11,18.92925 C9.814,18.7595 8.724,18.2925 7.80775,17.6065 L6.38225,19.03175 L6.34325,19.071 C5.95275,19.4615 5.31925,19.4615 4.929,19.071 C4.53875,18.6805 4.5385,18.04725 4.929,17.65675 L4.96825,17.61775 L6.3935,16.19225 C5.7075,15.276 5.2405,14.186 5.07075,13 L3,13 C2.44775,13 2,12.55225 2,12 C2,11.44775 2.44775,11 3,11 L5.07075,11 C5.2405,9.814 5.7075,8.724 6.3935,7.80775 L4.96825,6.38225 L4.929,6.34325 C4.5385,5.95275 4.5385,5.31925 4.929,4.929 C5.3195,4.53875 5.95275,4.5385 6.34325,4.929 L6.38225,4.96825 L7.80775,6.3935 C8.724,5.7075 9.81375,5.2405 11,5.07075 L11,3 C11,2.44775 11.44775,2 12,2 C12.55225,2 13,2.44775 13,3 L13,5.07075 C14.186,5.2405 15.276,5.7075 16.19225,6.3935 L17.61775,4.96825 L17.65675,4.929 C18.04725,4.5385 18.68075,4.5385 19.071,4.929 C19.46125,5.3195 19.4615,5.95275 19.071,6.34325 L19.03175,6.38225 L17.6065,7.80775 C18.2925,8.724 18.7595,9.81375 18.92925,11 L21,11 C21.55225,11 22,11.44775 22,12 C22,12.55225 21.55225,13 21,13 L18.92925,13 Z M12,8 C9.79075,8 8,9.79075 8,12 C8,14.20925 9.79075,16 12,16 C14.20925,16 16,14.20925 16,12 C16,9.79075 14.20925,8 12,8 Z M12,14 C10.8955,14 10,13.1045 10,12 C10,10.8955 10.8955,10 12,10 C13.1045,10 14,10.8955 14,12 C14,13.1045 13.1045,14 12,14 Z" id="Shape" fill="#000000"></path>
            <rect id="Rectangle-14" x="0" y="0" width="24" height="24"></rect>
        </g>
    </g>
</svg>