<?xml version="1.0" encoding="UTF-8"?>
<svg width="24px" height="24px" viewBox="0 0 24 24" version="1.1" xmlns="http://www.w3.org/2000/svg" xmlns:xlink="http://www.w3.org/1999/xlink">
    <!-- Generator: Sketch 51.2 (57519) - http://www.bohemiancoding.com/sketch -->
    <title>Icon_calendar</title>
    <desc>Created with Sketch.</desc>
    <defs></defs>
    <g id="Icon_calendar" stroke="none" stroke-width="1" fill="none" fill-rule="evenodd" opacity="0.4">
        <g fill-rule="nonzero">
            <path d="M21.1666667,9.27272727 L21.1666667,6.54545455 C21.1666667,6 20.8,5.63636364 20.25,5.63636364 L18.4166667,5.63636364 L18.4166667,6.54545455 C18.4166667,7.09090909 18.05,7.45454545 17.5,7.45454545 C16.95,7.45454545 16.5833333,7.09090909 16.5833333,6.54545455 L16.5833333,5.63636364 L7.41666667,5.63636364 L7.41666667,6.54545455 C7.41666667,7.09090909 7.05,7.45454545 6.5,7.45454545 C5.95,7.45454545 5.58333333,7.09090909 5.58333333,6.54545455 L5.58333333,5.63636364 L3.75,5.63636364 C3.2,5.63636364 2.83333333,6 2.83333333,6.54545455 L2.83333333,9.27272727 L21.1666667,9.27272727 Z M21.1666667,11.0909091 L2.83333333,11.0909091 L2.83333333,19.2727273 C2.83333333,19.8181818 3.2,20.1818182 3.75,20.1818182 L20.25,20.1818182 C20.8,20.1818182 21.1666667,19.8181818 21.1666667,19.2727273 L21.1666667,11.0909091 Z M18.4166667,3.81818182 L20.25,3.81818182 C21.8083333,3.81818182 23,5 23,6.54545455 L23,19.2727273 C23,20.8181818 21.8083333,22 20.25,22 L3.75,22 C2.19166667,22 1,20.8181818 1,19.2727273 L1,6.54545455 C1,5 2.19166667,3.81818182 3.75,3.81818182 L5.58333333,3.81818182 L5.58333333,2.90909091 C5.58333333,2.36363636 5.95,2 6.5,2 C7.05,2 7.41666667,2.36363636 7.41666667,2.90909091 L7.41666667,3.81818182 L16.5833333,3.81818182 L16.5833333,2.90909091 C16.5833333,2.36363636 16.95,2 17.5,2 C18.05,2 18.4166667,2.36363636 18.4166667,2.90909091 L18.4166667,3.81818182 Z M6.5,15.1818182 C5.76666667,15.1818182 5.125,14.5454545 5.125,13.8181818 C5.125,13.0909091 5.76666667,12.4545455 6.5,12.4545455 C7.23333333,12.4545455 7.875,13.0909091 7.875,13.8181818 C7.875,14.5454545 7.23333333,15.1818182 6.5,15.1818182 Z M6.5,18.8181818 C5.76666667,18.8181818 5.125,18.1818182 5.125,17.4545455 C5.125,16.7272727 5.76666667,16.0909091 6.5,16.0909091 C7.23333333,16.0909091 7.875,16.7272727 7.875,17.4545455 C7.875,18.1818182 7.23333333,18.8181818 6.5,18.8181818 Z M10.1666667,18.8181818 C9.43333333,18.8181818 8.79166667,18.1818182 8.79166667,17.4545455 C8.79166667,16.7272727 9.43333333,16.0909091 10.1666667,16.0909091 C10.9,16.0909091 11.5416667,16.7272727 11.5416667,17.4545455 C11.5416667,18.1818182 10.9,18.8181818 10.1666667,18.8181818 Z M10.1666667,15.1818182 C9.43333333,15.1818182 8.79166667,14.5454545 8.79166667,13.8181818 C8.79166667,13.0909091 9.43333333,12.4545455 10.1666667,12.4545455 C10.9,12.4545455 11.5416667,13.0909091 11.5416667,13.8181818 C11.5416667,14.5454545 10.9,15.1818182 10.1666667,15.1818182 Z M13.8333333,15.1818182 C13.1,15.1818182 12.4583333,14.5454545 12.4583333,13.8181818 C12.4583333,13.0909091 13.1,12.4545455 13.8333333,12.4545455 C14.5666667,12.4545455 15.2083333,13.0909091 15.2083333,13.8181818 C15.2083333,14.5454545 14.5666667,15.1818182 13.8333333,15.1818182 Z M13.8333333,18.8181818 C13.1,18.8181818 12.4583333,18.1818182 12.4583333,17.4545455 C12.4583333,16.7272727 13.1,16.0909091 13.8333333,16.0909091 C14.5666667,16.0909091 15.2083333,16.7272727 15.2083333,17.4545455 C15.2083333,18.1818182 14.5666667,18.8181818 13.8333333,18.8181818 Z M17.5,18.8181818 C16.7666667,18.8181818 16.125,18.1818182 16.125,17.4545455 C16.125,16.7272727 16.7666667,16.0909091 17.5,16.0909091 C18.2333333,16.0909091 18.875,16.7272727 18.875,17.4545455 C18.875,18.1818182 18.2333333,18.8181818 17.5,18.8181818 Z M17.5,15.1818182 C16.7666667,15.1818182 16.125,14.5454545 16.125,13.8181818 C16.125,13.0909091 16.7666667,12.4545455 17.5,12.4545455 C18.2333333,12.4545455 18.875,13.0909091 18.875,13.8181818 C18.875,14.5454545 18.2333333,15.1818182 17.5,15.1818182 Z" id="Combined-Shape" fill="#000000"></path>
            <rect id="Rectangle-14-Copy" x="0" y="0" width="24" height="24"></rect>
        </g>
    </g>
</svg>