<?xml version="1.0" encoding="UTF-8"?>
<svg width="24px" height="24px" viewBox="0 0 24 24" version="1.1" xmlns="http://www.w3.org/2000/svg" xmlns:xlink="http://www.w3.org/1999/xlink">
    <!-- Generator: Sketch 51.2 (57519) - http://www.bohemiancoding.com/sketch -->
    <title>Icon_back</title>
    <desc>Created with Sketch.</desc>
    <defs></defs>
    <g id="Icon_back" stroke="none" stroke-width="1" fill="none" fill-rule="evenodd" opacity="0.4">
        <g fill-rule="nonzero">
            <g id="arrow-left" transform="translate(3.000000, 4.000000)" fill="#000000">
                <path d="M19.0120988,7.13821538 L3.61876543,7.13821538 L8.84641975,1.92664615 C9.23209877,1.54215385 9.23185185,0.918892308 8.84641975,0.534153846 C8.46074074,0.149661538 7.83555556,0.149661538 7.44962963,0.534153846 L0.536049383,7.42646154 C0.15037037,7.81095385 0.15037037,8.43446154 0.535802469,8.81870769 L7.44938272,15.7110154 C7.64222222,15.9032615 7.89506173,15.9995077 8.14790123,15.9995077 C8.40049383,15.9995077 8.65333333,15.9032615 8.84641975,15.7107692 C9.23209877,15.3265231 9.23185185,14.7030154 8.84641975,14.3187692 L3.61851852,9.10744615 L19.0120988,9.10744615 C19.5575309,9.10744615 20,8.66633846 19.9997531,8.12283077 C19.9997531,7.57907692 19.5575309,7.13821538 19.0120988,7.13821538 Z" id="Shape"></path>
            </g>
            <rect id="Rectangle-12" x="0" y="0" width="24" height="24"></rect>
        </g>
    </g>
</svg>