<?xml version="1.0" encoding="UTF-8"?>
<svg width="77px" height="26px" viewBox="0 0 77 26" version="1.1" xmlns="http://www.w3.org/2000/svg" xmlns:xlink="http://www.w3.org/1999/xlink">
    <!-- Generator: Sketch 51.2 (57519) - http://www.bohemiancoding.com/sketch -->
    <title>Group 25 Copy 2</title>
    <desc>Created with Sketch.</desc>
    <defs>
        <path d="M57.9667733,5.5818087 L61.6068498,5.5818087 C62.4870112,5.5818087 63.2732424,6.22528696 63.356736,7.10146087 C63.4524057,8.10667826 62.664783,8.95189565 61.6792109,8.95189565 L52.1574641,8.95189565 C52.0468351,8.95189565 51.9949995,8.82006957 52.0736226,8.74215652 C52.4531705,8.36476522 52.6890399,7.84337391 52.6890399,7.26702609 C52.6890399,6.69067826 52.4531705,6.16928696 52.0736226,5.79189565 C51.9949995,5.71398261 52.0468351,5.5818087 52.1574641,5.5818087 L52.5686699,5.5818087 L52.5686699,4.25450435 C52.5686699,3.75363478 52.7231331,3.34493913 53.0324072,3.02737391 C53.3409855,2.71050435 53.7462773,2.55154783 54.2472388,2.55154783 C54.7482002,2.55154783 55.1569709,2.71050435 55.4745943,3.02737391 C55.7915221,3.34493913 55.9505077,3.75363478 55.9505077,4.25450435 L55.9505077,5.5818087 L57.9667733,5.5818087 L57.9667733,5.23405217 L57.9667733,5.58187826 Z M8.96717549,18.278887 C6.46236815,18.278887 4.34163127,17.4110609 2.60496484,15.6743652 C0.867950532,13.9383652 -3.47889908e-05,11.8176696 -3.47889908e-05,9.31332174 C-3.47889908e-05,6.80897391 0.867950532,4.68897391 2.60496484,2.95227826 C4.34163127,1.21593043 6.46236815,0.347756522 8.96717549,0.347756522 C9.46813695,0.347756522 9.87725549,0.50253913 10.1945311,0.81106087 C10.5114588,1.12027826 10.6704445,1.5248 10.6704445,2.02566957 C10.6704445,2.52653913 10.5114588,2.93593043 10.1945311,3.2528 C9.87725549,3.57001739 9.46813695,3.72862609 8.96717549,3.72862609 C7.39749622,3.72862609 6.07412301,4.26706087 4.99705585,5.34393043 C3.9199887,6.4208 3.38145512,7.74427826 3.38145512,9.31332174 C3.38145512,10.882713 3.9199887,12.2058435 4.99705585,13.282713 C6.07412301,14.3595826 7.39749622,14.8980174 8.96717549,14.8980174 C9.46813695,14.8980174 9.87725549,15.0569739 10.1945311,15.3738435 C10.5114588,15.6914087 10.6704445,16.1001043 10.6704445,16.6009739 C10.6704445,17.1018435 10.5114588,17.506713 10.1945311,17.8155826 C9.87725549,18.1244522 9.46813695,18.278887 8.96717549,18.278887 Z M22.8185513,16.5509565 C22.8185513,17.0518261 22.6595657,17.4566957 22.3426379,17.7655652 C22.0250145,18.074087 21.6158959,18.2288696 21.1152823,18.2288696 C20.6143209,18.2288696 20.2090291,18.074087 19.9004508,17.7655652 C19.5911767,17.4566957 19.4370614,17.0518261 19.4370614,16.5509565 L19.4120134,10.866087 C19.4120134,10.3151304 19.2154556,9.84347826 18.8233836,9.45113043 C18.4309638,9.05878261 17.9592251,8.8626087 17.4081675,8.8626087 C16.8400633,8.8626087 16.3603231,9.0546087 15.9679033,9.4386087 C15.5754834,9.82295652 15.3792735,10.2984348 15.3792735,10.866087 L15.3792735,16.5509565 C15.3792735,17.0518261 15.2202879,17.4566957 14.9033601,17.7655652 C14.5857367,18.074087 14.176966,18.2288696 13.6760046,18.2288696 C13.1750431,18.2288696 12.7697513,18.074087 12.461173,17.7655652 C12.1518989,17.4566957 11.9977836,17.0518261 11.9977836,16.5509565 L11.9977836,2.02573913 C11.9977836,1.52486957 12.1518989,1.12034783 12.461173,0.811130435 C12.7697513,0.50226087 13.1750431,0.347826087 13.6760046,0.347826087 C14.176966,0.347826087 14.5857367,0.50226087 14.9033601,0.811130435 C15.2202879,1.12034783 15.3792735,1.52486957 15.3792735,2.02573913 L15.3792735,5.8573913 C16.0134768,5.60695652 16.6901227,5.48173913 17.4081675,5.48173913 C18.9274027,5.48173913 20.2090291,5.99930435 21.2530468,7.03443478 C22.2963686,8.06991304 22.8185513,9.34713043 22.8185513,10.866087 L22.8185513,16.5509565 Z M30.5580929,18.278887 C28.7546316,18.278887 27.2392232,17.6614957 26.0118676,16.4256696 C24.784512,15.1905391 24.1708342,13.670887 24.1708342,11.8677565 C24.1708342,10.0646261 24.784512,8.54949565 26.0118676,7.32236522 C27.2392232,6.09523478 28.7546316,5.48166957 30.5580929,5.48166957 C32.3615542,5.48166957 33.8807894,6.09523478 35.1168423,7.32236522 C36.3521993,8.54949565 36.9703997,10.0646261 36.9703997,11.8677565 L36.9703997,16.550887 C36.9703997,17.0517565 36.8117619,17.4566261 36.4941384,17.7654957 C36.1768628,18.0743652 35.7680922,18.2288 35.2671307,18.2288 C34.7661692,18.2288 34.3612254,18.0743652 34.0522992,17.7654957 C33.743025,17.4566261 33.5889098,17.0517565 33.5889098,16.550887 L33.5889098,11.8677565 C33.5889098,11.0329739 33.2921597,10.3237565 32.6997032,9.73906087 C32.1065509,9.15506087 31.3926808,8.86253913 30.5580929,8.86253913 C29.7231571,8.86253913 29.0134617,9.15506087 28.4290067,9.73906087 C27.8442037,10.3237565 27.5523241,11.0329739 27.5523241,11.8677565 C27.5523241,12.702887 27.8442037,13.4166261 28.4290067,14.0089739 C29.0134617,14.6016696 29.7231571,14.8980174 30.5580929,14.8980174 C31.0590544,14.8980174 31.467825,15.0528 31.7854485,15.3613217 C32.1023762,15.6705391 32.2613619,16.0750609 32.2613619,16.5759304 C32.2613619,17.0768 32.1023762,17.4861913 31.7854485,17.8030609 C31.467825,18.1199304 31.0590544,18.278887 30.5580929,18.278887 Z M70.1597232,18.278887 C68.6230934,18.278887 67.3372923,17.7616696 66.301972,16.7261913 C65.2666516,15.6914087 64.7489914,14.4058435 64.7489914,12.8694957 L64.7489914,10.6301913 C64.7489914,10.1289739 64.9034545,9.72445217 65.2123808,9.41523478 C65.521307,9.10671304 65.9265988,8.95193043 66.4272123,8.95193043 C67.562725,8.95193043 68.1308292,9.51158261 68.1308292,10.6301913 L68.1308292,12.8694957 C68.1308292,13.4374957 68.3266912,13.9174957 68.719111,14.3094957 C69.1115309,14.7018435 69.5916189,14.8980174 70.1597232,14.8980174 C70.7271316,14.8980174 71.203045,14.7018435 71.5874633,14.3094957 C71.9711859,13.9174957 72.163569,13.4374957 72.163569,12.8694957 L72.163569,7.20966957 C72.163569,6.7088 72.3218589,6.30427826 72.6394824,5.99506087 C72.9564101,5.6861913 73.3658766,5.53175652 73.8664901,5.53175652 C74.3677995,5.53175652 74.7723954,5.6861913 75.0813217,5.99506087 C75.3902479,6.30427826 75.544711,6.7088 75.544711,7.20966957 L75.544711,18.3790609 C75.544711,19.8980174 75.0228762,21.1797565 73.9792065,22.2232348 C72.9355367,23.2663652 71.6539103,23.7884522 70.1346751,23.7884522 L66.4526083,23.7884522 C65.9512989,23.7884522 65.5421804,23.6336696 65.2249048,23.3251478 C64.9076292,23.0162783 64.7489914,22.6114087 64.7489914,22.1105391 C64.7489914,21.6100174 64.9076292,21.2002783 65.2249048,20.8837565 C65.5421804,20.5661913 65.9512989,20.4075826 66.4526083,20.4075826 L70.1346751,20.4075826 C70.6857327,20.4075826 71.1616461,20.206887 71.5620674,19.8065391 C71.9631844,19.4058435 72.163569,18.9300174 72.163569,18.3790609 L72.163569,17.9032348 C71.5286699,18.1536696 70.8610692,18.278887 70.1597232,18.278887 Z M57.9667733,8.95203478 L57.9667733,9.29986087 L57.9667733,8.95203478 Z M49.5132572,10.9662261 C49.99752,10.9662261 50.3982892,11.1251826 50.7155648,11.4420522 C51.0324925,11.7592696 51.1914782,12.1599652 51.1914782,12.6441391 L51.1914782,12.8695304 C51.1914782,14.3888348 50.673818,15.6705739 49.6384976,16.7137043 C48.6031772,17.7571826 47.3257255,18.2789217 45.8064903,18.2789217 C44.2695127,18.2789217 42.9837116,17.7617043 41.9483912,16.7262261 C40.9130708,15.6910957 40.3957585,14.4058783 40.3957585,12.8695304 L40.3957585,9.61283478 L43.7772484,9.61283478 L43.7772484,12.8695304 C43.7772484,13.4371826 43.9734583,13.9175304 44.3658782,14.3095304 C44.758298,14.7018783 45.2383861,14.8980522 45.8064903,14.8980522 C46.3738987,14.8980522 46.8498121,14.7018783 47.2338826,14.3095304 C47.617953,13.9175304 47.8099883,13.4371826 47.8099883,12.8695304 L47.8099883,12.6441391 C47.8099883,12.1599652 47.9728007,11.7592696 48.2984257,11.4420522 C48.6240506,11.1251826 49.0286466,10.9662261 49.5132572,10.9662261 Z M61.6863774,10.9662261 C62.1706401,10.9662261 62.5714093,11.1251826 62.8886849,11.4420522 C63.2056126,11.7592696 63.3645983,12.1599652 63.3645983,12.6441391 L63.3645983,12.8695304 C63.3645983,14.3888348 62.8469381,15.6705739 61.8116178,16.7137043 C60.7762974,17.7571826 59.4988457,18.2789217 57.9796104,18.2789217 C56.4429807,18.2789217 55.1568317,17.7617043 54.1218592,16.7262261 C53.086191,15.6910957 52.5688787,14.4058783 52.5688787,12.8695304 L52.5688787,9.61283478 L55.9507165,9.61283478 L55.9507165,12.8695304 C55.9507165,13.4371826 56.1465785,13.9175304 56.5389983,14.3095304 C56.9314181,14.7018783 57.4115062,14.8980522 57.9796104,14.8980522 C58.5470189,14.8980522 59.0229323,14.7018783 59.4070027,14.3095304 C59.7910732,13.9175304 59.9831084,13.4371826 59.9831084,12.8695304 L59.9831084,12.6441391 C59.9831084,12.1599652 60.1459209,11.7592696 60.4715458,11.4420522 C60.7971708,11.1251826 61.2017668,10.9662261 61.6863774,10.9662261 Z M50.3503499,8.95203478 L39.8847778,8.95203478 C38.9541723,8.95203478 38.1995991,8.1976 38.1995991,7.26681739 C38.1995991,6.33638261 38.9541723,5.58194783 39.8847778,5.58194783 L40.3954802,5.58194783 L40.3954802,4.25464348 C40.3954802,3.75377391 40.5499433,3.34473043 40.8588696,3.02716522 C41.1677958,2.71029565 41.5730876,2.55168696 42.074049,2.55168696 C42.5750105,2.55168696 42.9837811,2.71029565 43.3014046,3.02716522 C43.6183323,3.34473043 43.777318,3.75377391 43.777318,4.25464348 L43.777318,5.58194783 L50.3503499,5.58194783 C51.2705188,5.59412174 52.0358766,6.34403478 52.0358766,7.26681739 C52.0358766,8.18994783 51.2705188,8.93986087 50.3503499,8.95203478 Z M55.1633372,21.5495652 C55.1633372,22.786087 54.1607185,23.7885217 52.9239699,23.7885217 L50.8362826,23.7885217 C49.5995339,23.7885217 48.5969152,22.786087 48.5969152,21.5495652 C48.5969152,20.9189565 49.1083134,20.4073043 49.7393857,20.4073043 L54.0208668,20.4073043 C54.6519391,20.4073043 55.1633372,20.9189565 55.1633372,21.5495652 Z" id="path-1"></path>
        <filter x="-1.3%" y="-4.3%" width="104.0%" height="117.1%" filterUnits="objectBoundingBox" id="filter-2">
            <feOffset dx="1" dy="2" in="SourceAlpha" result="shadowOffsetOuter1"></feOffset>
            <feColorMatrix values="0 0 0 0 1   0 0 0 0 0.956862745   0 0 0 0 0.498039216  0 0 0 1 0" type="matrix" in="shadowOffsetOuter1"></feColorMatrix>
        </filter>
    </defs>
    <g id="Page-1" stroke="none" stroke-width="1" fill="none" fill-rule="evenodd">
        <g id="Group-25-Copy-2">
            <g id="Combined-Shape">
                <use fill="black" fill-opacity="1" filter="url(#filter-2)" xlink:href="#path-1"></use>
                <use fill="#A766FE" fill-rule="evenodd" xlink:href="#path-1"></use>
            </g>
        </g>
    </g>
</svg>