<?xml version="1.0" encoding="UTF-8"?>
<svg width="32px" height="32px" viewBox="0 0 32 32" version="1.1" xmlns="http://www.w3.org/2000/svg" xmlns:xlink="http://www.w3.org/1999/xlink">
    <!-- Generator: Sketch 51.2 (57519) - http://www.bohemiancoding.com/sketch -->
    <title>Icon_emotion_joy</title>
    <desc>Created with Sketch.</desc>
    <defs>
        <path d="M14.99575,0.325230769 L0.67725,0.366584615 C0.3745,0.367015385 0.1658125,0.668984615 0.2804375,0.944676923 C0.87675,2.37741538 2.8678125,5.98467692 7.8063125,5.98467692 C12.742625,5.98467692 14.77875,2.352 15.393875,0.906769231 C15.5115625,0.630215385 15.3015625,0.325230769 14.9970625,0.325230769 C14.996625,0.325230769 14.9961875,0.325230769 14.99575,0.325230769 Z" id="path-1"></path>
        <path d="M14.7472064,0 L0.428706437,0.0413538462 C0.125956437,0.0417846154 -0.0827310632,0.343753846 0.0318939368,0.619446154 C0.628206437,2.05218462 2.61926894,5.65944615 7.55776894,5.65944615 C12.4940814,5.65944615 14.5302064,2.02676923 15.1453314,0.581538462 C15.2630189,0.304984615 15.0530189,0 14.7485189,0 C14.7480814,0 14.7476439,0 14.7472064,0" id="path-3"></path>
    </defs>
    <g id="Symbols" stroke="none" stroke-width="1" fill="none" fill-rule="evenodd">
        <g id="Icon_emotion_joy">
            <g>
                <g id="Group-19" transform="translate(2.000000, 2.000000)">
                    <g id="Group-10" transform="translate(0.000000, 0.357366)">
                        <path d="M27.999825,14.0744625 C27.999825,21.8063754 21.7317379,28.0744625 13.999825,28.0744625 C6.26791211,28.0744625 -0.000175,21.8063754 -0.000175,14.0744625 C-0.000175,6.34254961 6.26791211,0.0744625 13.999825,0.0744625 C21.7317379,0.0744625 27.999825,6.34254961 27.999825,14.0744625" id="Fill-1" fill="#FFE770"></path>
                        <g id="Group-18" transform="translate(5.250000, 7.875000)" fill="#403408">
                            <path d="M1.0929625,5.81282154 C0.7849625,5.81282154 0.48615,5.65429846 0.3234,5.37171385 C0.082775,4.95343692 0.2319625,4.42272923 0.6563375,4.18580615 L2.6264,3.08648308 L0.62965,1.97079077 C0.205275,1.73386769 0.056525,1.20272923 0.2975875,0.784883077 C0.5382125,0.366606154 1.0772125,0.220144615 1.502025,0.457498462 L4.8537125,2.33005231 C5.13065,2.48469846 5.3017125,2.77374462 5.301275,3.08691385 C5.301275,3.40008308 5.1302125,3.68912923 4.8537125,3.84377538 L1.5278375,5.69952923 C1.3904625,5.77620615 1.2404,5.81282154 1.0929625,5.81282154" id="Fill-4"></path>
                            <path d="M15.9582062,5.80278462 C15.8094562,5.80278462 15.6585187,5.76530769 15.5202688,5.68647692 L12.2455813,3.81392308 C11.9760813,3.65970769 11.8107063,3.37626154 11.8107063,3.06998462 C11.8107063,2.76327692 11.9765188,2.47983077 12.2460187,2.32604615 L15.4948938,0.470292308 C15.9122688,0.232076923 16.4468938,0.371646154 16.6888312,0.7826 C16.9312062,1.19355385 16.7890188,1.71995385 16.3716438,1.95816923 L14.4243312,3.07041538 L16.3974562,4.19903077 C16.8148312,4.43724615 16.9565812,4.96364615 16.7142063,5.3746 C16.5523312,5.64943077 16.2592063,5.80278462 15.9582062,5.80278462" id="Fill-6"></path>
                        </g>
                        <path d="M6.802075,15.4432062 C6.499325,15.4440677 6.2906375,15.7456062 6.4052625,16.0212985 C7.001575,17.4540369 8.9926375,21.0612985 13.931575,21.0612985 C18.8678875,21.0612985 20.9040125,17.4290523 21.5187,15.9838215 C21.6363875,15.7068369 21.42595,15.4014215 21.1210125,15.4022831 L6.802075,15.4432062 Z" id="Fill-8" fill="#403408"></path>
                    </g>
                    <g id="Group-17" transform="translate(6.125000, 15.434289)">
                        <g id="Group-13">
                            <mask id="mask-2" fill="white">
                                <use xlink:href="#path-1"></use>
                            </mask>
                            <g id="Clip-12"></g>
                            <path d="M1.31508125,0.20328 C1.03945625,0.203710769 0.84958125,0.284695385 0.95370625,0.358787692 C1.49664375,0.744326154 3.31051875,1.71441846 7.80933125,1.71441846 C12.3055188,1.71441846 14.1605188,0.737433846 14.7205188,0.34888 C14.8277063,0.274356923 14.6360813,0.19208 14.3582688,0.192510769 L1.31508125,0.20328 Z" id="Fill-11" fill="#FFFFFF" mask="url(#mask-2)"></path>
                        </g>
                        <g id="Group-16" transform="translate(0.437500, 0.000000)">
                            <mask id="mask-4" fill="white">
                                <use xlink:href="#path-3"></use>
                            </mask>
                            <g id="Clip-15"></g>
                            <path d="M12.6665438,7.12393231 C12.6665438,8.70959385 10.2598563,9.99500923 7.29098125,9.99500923 C4.32210625,9.99500923 1.91498125,8.70959385 1.91498125,7.12393231 C1.91498125,5.53827077 4.32210625,4.25285538 7.29098125,4.25285538 C10.2598563,4.25285538 12.6665438,5.53827077 12.6665438,7.12393231" id="Fill-14" fill="#D1212D" mask="url(#mask-4)"></path>
                        </g>
                    </g>
                </g>
                <rect id="Rectangle-25" fill-rule="nonzero" x="0" y="0" width="32" height="32"></rect>
            </g>
        </g>
    </g>
</svg>