<?xml version="1.0" encoding="UTF-8"?>
<svg width="24px" height="24px" viewBox="0 0 24 24" version="1.1" xmlns="http://www.w3.org/2000/svg" xmlns:xlink="http://www.w3.org/1999/xlink">
    <!-- Generator: Sketch 51.2 (57519) - http://www.bohemiancoding.com/sketch -->
    <title>Icon_facebook</title>
    <desc>Created with Sketch.</desc>
    <defs></defs>
    <g id="Symbols" stroke="none" stroke-width="1" fill="none" fill-rule="evenodd">
        <g id="Icon_facebook" fill="#FFFFFF" fill-rule="nonzero">
            <g id="Facebook">
                <path d="M12.8191775,24 L1.324616,24 C0.5928365,24 0,23.406796 0,22.6753015 L0,1.3246055 C0,0.592925 0.5929295,0 1.324616,0 L22.6754775,0 C23.4069775,0 24,0.592925 24,1.3246055 L24,22.6753015 C24,23.406889 23.4068845,24 22.6754775,24 L16.5596525,24 L16.5596525,14.7058775 L19.6792605,14.7058775 L20.1463775,11.083793 L16.5596525,11.083793 L16.5596525,8.7713205 C16.5596525,7.7226435 16.850856,7.008005 18.354645,7.008005 L20.2726555,7.0071665 L20.2726555,3.7675455 C19.940943,3.723404 18.802392,3.624785 17.477776,3.624785 C14.712417,3.624785 12.8191775,5.312763 12.8191775,8.4126045 L12.8191775,11.083793 L9.691561,11.083793 L9.691561,14.7058775 L12.8191775,14.7058775 L12.8191775,24 Z"></path>
            </g>
        </g>
    </g>
</svg>