<?xml version="1.0" encoding="UTF-8"?>
<svg width="32px" height="32px" viewBox="0 0 32 32" version="1.1" xmlns="http://www.w3.org/2000/svg" xmlns:xlink="http://www.w3.org/1999/xlink">
    <!-- Generator: Sketch 51.2 (57519) - http://www.bohemiancoding.com/sketch -->
    <title>Icon_emotion_angry</title>
    <desc>Created with Sketch.</desc>
    <defs>
        <radialGradient cx="50%" cy="3.46505301%" fx="50%" fy="3.46505301%" r="84.992327%" id="radialGradient-1">
            <stop stop-color="#C6565C" offset="0%"></stop>
            <stop stop-color="#FFE770" offset="100%"></stop>
        </radialGradient>
    </defs>
    <g id="Symbols" stroke="none" stroke-width="1" fill="none" fill-rule="evenodd">
        <g id="Icon_emotion_angry">
            <g>
                <g id="Group-14" transform="translate(2.000000, 2.000000)">
                    <path d="M27.999825,13.9999125 C27.999825,21.7318254 21.7317379,27.9999125 13.999825,27.9999125 C6.26791211,27.9999125 -0.000175,21.7318254 -0.000175,13.9999125 C-0.000175,6.26799961 6.26791211,-8.75e-05 13.999825,-8.75e-05 C21.7317379,-8.75e-05 27.999825,6.26799961 27.999825,13.9999125" id="Fill-1" fill="url(#radialGradient-1)"></path>
                    <g id="Group" transform="translate(5.250000, 6.125000)" fill="#403408">
                        <path d="M2.35655,8.40730625 C1.7987375,8.40730625 1.342425,7.95099375 1.342425,7.39318125 L1.342425,4.95893125 C1.342425,4.40068125 1.7987375,3.94436875 2.35655,3.94436875 C2.9143625,3.94436875 3.370675,4.40068125 3.370675,4.95893125 L3.370675,7.39318125 C3.370675,7.95099375 2.9143625,8.40730625 2.35655,8.40730625" id="Fill-4"></path>
                        <path d="M15.0688562,8.40730625 C14.5110437,8.40730625 14.0547312,7.95099375 14.0547312,7.39318125 L14.0547312,4.95893125 C14.0547312,4.40068125 14.5110437,3.94436875 15.0688562,3.94436875 C15.6266687,3.94436875 16.0829812,4.40068125 16.0829812,4.95893125 L16.0829812,7.39318125 C16.0829812,7.95099375 15.6266687,8.40730625 15.0688562,8.40730625" id="Fill-6"></path>
                        <path d="M1.810375,2.0059375 C1.1808125,2.0059375 0.669375,1.799875 0.6383125,1.7871875 C0.431375,1.701875 0.3325,1.46475 0.4178125,1.257375 C0.5026875,1.050875 0.739375,0.952 0.9463125,1.036 C0.9576875,1.0408125 1.7679375,1.3610625 2.4224375,1.080625 C2.74225,0.944125 2.97325,0.686875 3.1294375,0.294875 C3.212125,0.086625 3.4479375,-0.0144375 3.6561875,0.0678125 C3.8644375,0.1505 3.966375,0.3863125 3.88325,0.5945625 C3.6456875,1.19175 3.259375,1.607375 2.7356875,1.829625 C2.4259375,1.960875 2.1048125,2.0059375 1.810375,2.0059375" id="Fill-8"></path>
                        <path d="M15.421,2.0059375 C15.126125,2.0059375 14.8054375,1.960875 14.4956875,1.829625 C13.972,1.607375 13.5856875,1.1921875 13.3476875,0.5945625 C13.265,0.38675 13.3669375,0.1505 13.57475,0.0678125 C13.7825625,-0.0144375 14.0188125,0.086625 14.1019375,0.294875 C14.2585625,0.688625 14.490875,0.9463125 14.8124375,1.082375 C15.4643125,1.358875 16.275875,1.0399375 16.2841875,1.036875 C16.492,0.951125 16.72825,1.0504375 16.8135625,1.257375 C16.898875,1.46475 16.8,1.701875 16.592625,1.7871875 C16.562,1.799875 16.0505625,2.0059375 15.421,2.0059375" id="Fill-10"></path>
                    </g>
                    <path d="M18.8523584,20.7396875 C19.0816084,20.97725 19.4937334,20.7571875 19.4040459,20.4395625 C19.4031709,20.4365 19.4022959,20.433875 19.4014209,20.4308125 C18.9647959,18.9756875 17.5057334,15.3125 13.8871709,15.3125 C10.2703584,15.3125 8.77848337,19.0010625 8.32785837,20.4693125 C8.32698337,20.4719375 8.32654587,20.475 8.32567087,20.477625 C8.23335837,20.7965625 8.64854587,21.018375 8.87779587,20.77775 C9.60798337,20.010375 11.7718584,18.7770625 13.8652959,18.7770625 C15.9582959,18.7770625 18.1217334,19.9819375 18.8523584,20.7396875" id="Fill-12" fill="#403408"></path>
                </g>
                <rect id="Rectangle-25-Copy-3" fill-rule="nonzero" x="0" y="0" width="32" height="32"></rect>
            </g>
        </g>
    </g>
</svg>