<?xml version="1.0" encoding="UTF-8"?>
<svg width="36px" height="36px" viewBox="0 0 36 36" version="1.1" xmlns="http://www.w3.org/2000/svg" xmlns:xlink="http://www.w3.org/1999/xlink">
    <!-- Generator: Sketch 51.2 (57519) - http://www.bohemiancoding.com/sketch -->
    <title>Icon_emotion_angry_selected</title>
    <desc>Created with Sketch.</desc>
    <defs>
        <radialGradient cx="50%" cy="3.46505301%" fx="50%" fy="3.46505301%" r="84.992327%" id="radialGradient-1">
            <stop stop-color="#C6565C" offset="0%"></stop>
            <stop stop-color="#FFE770" offset="100%"></stop>
        </radialGradient>
    </defs>
    <g id="Symbols" stroke="none" stroke-width="1" fill="none" fill-rule="evenodd">
        <g id="Icon_emotion_angry_selected">
            <g id="Icon_emotion_angry">
                <g id="Group-14" transform="translate(2.000000, 2.000000)">
                    <path d="M31.9998,15.9999 C31.9998,24.8363719 24.8362719,31.9999 15.9998,31.9999 C7.16332812,31.9999 -0.0002,24.8363719 -0.0002,15.9999 C-0.0002,7.16342812 7.16332812,-0.0001 15.9998,-0.0001 C24.8362719,-0.0001 31.9998,7.16342812 31.9998,15.9999" id="Fill-1" stroke="#A766FE" stroke-width="2" fill="url(#radialGradient-1)"></path>
                    <g id="Group" transform="translate(6.000000, 7.000000)" fill="#403408">
                        <path d="M2.6932,9.60835 C2.0557,9.60835 1.5342,9.08685 1.5342,8.44935 L1.5342,5.66735 C1.5342,5.02935 2.0557,4.50785 2.6932,4.50785 C3.3307,4.50785 3.8522,5.02935 3.8522,5.66735 L3.8522,8.44935 C3.8522,9.08685 3.3307,9.60835 2.6932,9.60835" id="Fill-4"></path>
                        <path d="M17.22155,9.60835 C16.58405,9.60835 16.06255,9.08685 16.06255,8.44935 L16.06255,5.66735 C16.06255,5.02935 16.58405,4.50785 17.22155,4.50785 C17.85905,4.50785 18.38055,5.02935 18.38055,5.66735 L18.38055,8.44935 C18.38055,9.08685 17.85905,9.60835 17.22155,9.60835" id="Fill-6"></path>
                        <path d="M2.069,2.2925 C1.3495,2.2925 0.765,2.057 0.7295,2.0425 C0.493,1.945 0.38,1.674 0.4775,1.437 C0.5745,1.201 0.845,1.088 1.0815,1.184 C1.0945,1.1895 2.0205,1.5555 2.7685,1.235 C3.134,1.079 3.398,0.785 3.5765,0.337 C3.671,0.099 3.9405,-0.0165 4.1785,0.0775 C4.4165,0.172 4.533,0.4415 4.438,0.6795 C4.1665,1.362 3.725,1.837 3.1265,2.091 C2.7725,2.241 2.4055,2.2925 2.069,2.2925" id="Fill-8"></path>
                        <path d="M17.624,2.2925 C17.287,2.2925 16.9205,2.241 16.5665,2.091 C15.968,1.837 15.5265,1.3625 15.2545,0.6795 C15.16,0.442 15.2765,0.172 15.514,0.0775 C15.7515,-0.0165 16.0215,0.099 16.1165,0.337 C16.2955,0.787 16.561,1.0815 16.9285,1.237 C17.6735,1.553 18.601,1.1885 18.6105,1.185 C18.848,1.087 19.118,1.2005 19.2155,1.437 C19.313,1.674 19.2,1.945 18.963,2.0425 C18.928,2.057 18.3435,2.2925 17.624,2.2925" id="Fill-10"></path>
                    </g>
                    <path d="M21.5455524,23.7025 C21.8075524,23.974 22.2785524,23.7225 22.1760524,23.3595 C22.1750524,23.356 22.1740524,23.353 22.1730524,23.3495 C21.6740524,21.6865 20.0065524,17.5 15.8710524,17.5 C11.7375524,17.5 10.0325524,21.7155 9.51755242,23.3935 C9.51655242,23.3965 9.51605242,23.4 9.51505242,23.403 C9.40955242,23.7675 9.88405242,24.021 10.1460524,23.746 C10.9805524,22.869 13.4535524,21.4595 15.8460524,21.4595 C18.2380524,21.4595 20.7105524,22.8365 21.5455524,23.7025" id="Fill-12" fill="#403408"></path>
                </g>
                <rect id="Rectangle-25-Copy-3" fill-rule="nonzero" x="0" y="0" width="36" height="36"></rect>
            </g>
        </g>
    </g>
</svg>