<?xml version="1.0" encoding="UTF-8"?>
<svg width="24px" height="24px" viewBox="0 0 24 24" version="1.1" xmlns="http://www.w3.org/2000/svg" xmlns:xlink="http://www.w3.org/1999/xlink">
    <!-- Generator: Sketch 51.2 (57519) - http://www.bohemiancoding.com/sketch -->
    <title>Icon_Checkbox_On</title>
    <desc>Created with Sketch.</desc>
    <defs></defs>
    <g id="Icon_Checkbox_On" stroke="none" stroke-width="1" fill="none" fill-rule="evenodd">
        <g fill-rule="nonzero">
            <g id="square-check" transform="translate(3.000000, 3.000000)">
                <path d="M15.5454545,0 L2.45454545,0 C1.09840909,0 0,1.09840909 0,2.45454545 L0,15.5454545 C0,16.9015909 1.09840909,18 2.45454545,18 L15.5454545,18 C16.9015909,18 18,16.9015909 18,15.5454545 L18,2.45454545 C18,1.09840909 16.9015909,0 15.5454545,0 Z" id="Shape" fill="#A766FE"></path>
                <path d="M12.3373864,6.2662216 L8.48034091,10.1234943 L6.55193182,8.19508523 C6.19693182,7.84008523 5.62125,7.84008523 5.26625,8.19508523 C4.91125,8.55008523 4.91125,9.12576705 5.26625,9.48053978 L7.83693182,12.0516761 C8.19215909,12.4066761 8.76784091,12.4066761 9.12284091,12.0516761 L13.6226136,7.55190342 C13.9778409,7.19735796 13.9778409,6.62167614 13.6230682,6.26644887 C13.2680682,5.9112216 12.6923864,5.9112216 12.3373864,6.2662216 Z" id="Path" fill="#FFFFFF"></path>
            </g>
            <rect id="Rectangle-25" x="0" y="0" width="24" height="24"></rect>
        </g>
    </g>
</svg>