<?xml version="1.0" encoding="UTF-8"?>
<svg width="36px" height="36px" viewBox="0 0 36 36" version="1.1" xmlns="http://www.w3.org/2000/svg" xmlns:xlink="http://www.w3.org/1999/xlink">
    <!-- Generator: Sketch 51.2 (57519) - http://www.bohemiancoding.com/sketch -->
    <title>Icon_emotion_soso_selected</title>
    <desc>Created with Sketch.</desc>
    <defs></defs>
    <g id="Symbols" stroke="none" stroke-width="1" fill="none" fill-rule="evenodd">
        <g id="Icon_emotion_soso_selected">
            <g id="Icon_emotion_soso">
                <g id="Group-10" transform="translate(2.000000, 2.000000)">
                    <path d="M31.9998,16.0851 C31.9998,24.9215719 24.8362719,32.0851 15.9998,32.0851 C7.16332812,32.0851 -0.0002,24.9215719 -0.0002,16.0851 C-0.0002,7.24862812 7.16332812,0.0851 15.9998,0.0851 C24.8362719,0.0851 31.9998,7.24862812 31.9998,16.0851" id="Fill-1" stroke="#A766FE" stroke-width="2" fill="#FFE770"></path>
                    <path d="M12,13.75 C12,14.4375539 11.465086,15 10.8111883,15 L6.6893246,15 C6.03542686,15 5.5,14.4375539 5.5,13.75 C5.5,13.0624461 6.03542686,12.5 6.6893246,12.5 L10.8111883,12.5 C11.465086,12.5 12,13.0624461 12,13.75" id="Fill-4" fill="#403408"></path>
                    <path d="M26.5,13.75 C26.5,14.4375539 25.965086,15 25.3111883,15 L21.1893246,15 C20.5354269,15 20,14.4375539 20,13.75 C20,13.0624461 20.5354269,12.5 21.1893246,12.5 L25.3111883,12.5 C25.965086,12.5 26.5,13.0624461 26.5,13.75" id="Fill-6" fill="#403408"></path>
                    <path d="M24.8103882,22 L6.68961178,22 C6.30886279,22 6,21.6640906 6,21.25 C6,20.8359094 6.30886279,20.5 6.68961178,20.5 L24.8103882,20.5 C25.1911372,20.5 25.5,20.8359094 25.5,21.25 C25.5,21.6640906 25.1911372,22 24.8103882,22" id="Fill-8" fill="#403408"></path>
                </g>
                <rect id="Rectangle-25-Copy-4" fill-rule="nonzero" x="0" y="0" width="36" height="36"></rect>
            </g>
        </g>
    </g>
</svg>