<?xml version="1.0" encoding="UTF-8"?>
<svg width="32px" height="32px" viewBox="0 0 32 32" version="1.1" xmlns="http://www.w3.org/2000/svg" xmlns:xlink="http://www.w3.org/1999/xlink">
    <!-- Generator: Sketch 51.2 (57519) - http://www.bohemiancoding.com/sketch -->
    <title>Icon_emotion_soso</title>
    <desc>Created with Sketch.</desc>
    <defs></defs>
    <g id="Symbols" stroke="none" stroke-width="1" fill="none" fill-rule="evenodd">
        <g id="Icon_emotion_soso">
            <g>
                <g id="Group-10" transform="translate(2.000000, 2.000000)">
                    <path d="M27.999825,14.0744625 C27.999825,21.8063754 21.7317379,28.0744625 13.999825,28.0744625 C6.26791211,28.0744625 -0.000175,21.8063754 -0.000175,14.0744625 C-0.000175,6.34254961 6.26791211,0.0744625 13.999825,0.0744625 C21.7317379,0.0744625 27.999825,6.34254961 27.999825,14.0744625" id="Fill-1" fill="#FFE770"></path>
                    <path d="M10.5,12.03125 C10.5,12.6328597 10.0319503,13.125 9.45978973,13.125 L5.85315903,13.125 C5.2809985,13.125 4.8125,12.6328597 4.8125,12.03125 C4.8125,11.4296403 5.2809985,10.9375 5.85315903,10.9375 L9.45978973,10.9375 C10.0319503,10.9375 10.5,11.4296403 10.5,12.03125" id="Fill-4" fill="#403408"></path>
                    <path d="M23.1875,12.03125 C23.1875,12.6328597 22.7194503,13.125 22.1472897,13.125 L18.540659,13.125 C17.9684985,13.125 17.5,12.6328597 17.5,12.03125 C17.5,11.4296403 17.9684985,10.9375 18.540659,10.9375 L22.1472897,10.9375 C22.7194503,10.9375 23.1875,11.4296403 23.1875,12.03125" id="Fill-6" fill="#403408"></path>
                    <path d="M21.7090897,19.25 L5.8534103,19.25 C5.52025494,19.25 5.25,18.9560793 5.25,18.59375 C5.25,18.2314207 5.52025494,17.9375 5.8534103,17.9375 L21.7090897,17.9375 C22.0422451,17.9375 22.3125,18.2314207 22.3125,18.59375 C22.3125,18.9560793 22.0422451,19.25 21.7090897,19.25" id="Fill-8" fill="#403408"></path>
                </g>
                <rect id="Rectangle-25-Copy-4" fill-rule="nonzero" x="0" y="0" width="32" height="32"></rect>
            </g>
        </g>
    </g>
</svg>