<?xml version="1.0" encoding="UTF-8"?>
<svg width="24px" height="24px" viewBox="0 0 24 24" version="1.1" xmlns="http://www.w3.org/2000/svg" xmlns:xlink="http://www.w3.org/1999/xlink">
    <!-- Generator: Sketch 51.2 (57519) - http://www.bohemiancoding.com/sketch -->
    <title>Icon_weather_sunny</title>
    <desc>Created with Sketch.</desc>
    <defs></defs>
    <g id="Icon_weather_sunny" stroke="none" stroke-width="1" fill="none" fill-rule="evenodd">
        <g id="Shape">
            <polygon points="0 0 24 0 24 24 0 24"></polygon>
            <path d="M6.05052757,4.58446908 L5.66696105,4.20303348 C5.2761991,3.81444244 4.64467801,3.81532199 4.255,4.205 L4.255,4.205 C3.86563925,4.59436075 3.86563925,5.22563925 4.255,5.615 L4.63538741,5.99538741 C5.0249363,6.3849363 5.65617503,6.38605156 6.04709797,5.9978816 L6.05,5.995 C6.43965212,5.60809191 6.4418766,4.97856546 6.0549685,4.58891334 C6.05349288,4.58742725 6.05201256,4.58594582 6.05052757,4.58446908 Z M3,10.95 L2,10.95 C1.44771525,10.95 1,11.3977153 1,11.95 L1,11.95 C1,12.5022847 1.44771525,12.95 2,12.95 L3,12.95 C3.55228475,12.95 4,12.5022847 4,11.95 L4,11.95 C4,11.3977153 3.55228475,10.95 3,10.95 Z M11,2 L11,2.95 C11,3.50228475 11.4477153,3.95 12,3.95 L12,3.95 C12.5522847,3.95 13,3.50228475 13,2.95 L13,2 C13,1.44771525 12.5522847,1 12,1 L12,1 C11.4477153,1 11,1.44771525 11,2 Z M19.745,4.205 L19.745,4.205 C19.3556393,3.81563925 18.7243607,3.81563925 18.335,4.205 L17.955,4.585 C17.5656393,4.97436075 17.5656393,5.60563925 17.955,5.995 L17.955,5.995 C18.3443607,6.38436075 18.9756393,6.38436075 19.365,5.995 L19.745,5.615 C20.1343607,5.22563925 20.1343607,4.59436075 19.745,4.205 Z M17.9380474,19.3119471 L18.3269665,19.703039 C18.7141611,20.0923967 19.3436812,20.0941502 19.733039,19.7069556 C19.7336935,19.7063046 19.7343472,19.7056528 19.735,19.705 L19.735,19.705 C20.1232777,19.3167223 20.1232777,18.6871998 19.735,18.2989221 C19.7343472,18.2982693 19.7336935,18.2976175 19.733039,18.2969665 L19.3419471,17.9080474 C18.9539566,17.5222124 18.3269143,17.5230857 17.94,17.91 L17.94,17.91 C17.5530857,18.2969143 17.5522124,18.9239566 17.9380474,19.3119471 Z M20,11.95 L20,11.95 C20,12.5022847 20.4477153,12.95 21,12.95 L22,12.95 C22.5522847,12.95 23,12.5022847 23,11.95 L23,11.95 C23,11.3977153 22.5522847,10.95 22,10.95 L21,10.95 C20.4477153,10.95 20,11.3977153 20,11.95 Z M12,5.95 C8.69,5.95 6,8.64 6,11.95 C6,15.26 8.69,17.95 12,17.95 C15.31,17.95 18,15.26 18,11.95 C18,8.64 15.31,5.95 12,5.95 Z M12,22.9 L12,22.9 C12.5522847,22.9 13,22.4522847 13,21.9 L13,20.95 C13,20.3977153 12.5522847,19.95 12,19.95 L12,19.95 C11.4477153,19.95 11,20.3977153 11,20.95 L11,21.9 C11,22.4522847 11.4477153,22.9 12,22.9 Z M4.255,19.695 L4.255,19.695 C4.64327769,20.0832777 5.2728002,20.0832777 5.66107789,19.695 C5.66173067,19.6943472 5.66238253,19.6936935 5.66303348,19.693039 L6.04696652,19.306961 C6.43555756,18.9161991 6.43467801,18.284678 6.045,17.895 L6.045,17.895 C5.65672231,17.5067223 5.0271998,17.5067223 4.63892211,17.895 C4.63826933,17.8956528 4.63761747,17.8963065 4.63696652,17.896961 L4.25303348,18.283039 C3.86444244,18.6738009 3.86532199,19.305322 4.255,19.695 Z" fill="#F5961B" fill-rule="nonzero"></path>
        </g>
    </g>
</svg>