<?xml version="1.0" encoding="UTF-8"?>
<svg width="24px" height="24px" viewBox="0 0 24 24" version="1.1" xmlns="http://www.w3.org/2000/svg" xmlns:xlink="http://www.w3.org/1999/xlink">
    <!-- Generator: Sketch 51.2 (57519) - http://www.bohemiancoding.com/sketch -->
    <title>Icon_Exit</title>
    <desc>Created with Sketch.</desc>
    <defs></defs>
    <g id="Icon_Exit" stroke="none" stroke-width="1" fill="none" fill-rule="evenodd" opacity="0.4">
        <g fill-rule="nonzero">
            <g id="exit-symbol" transform="translate(3.000000, 1.000000)" fill="#444444">
                <path d="M12.75,0 C14.2625,0 15.5,1.2375 15.5,2.75 C15.5,3.9875 14.675,5.0875 13.4375,5.3625 C13.4375,5.3625 13.4375,5.5 13.4375,5.5 C13.9875,5.5 14.4,5.775 14.8125,6.1875 L16.6,7.975 C16.7375,8.1125 17.0125,8.25 17.2875,8.25 L19.625,8.25 L19.625,0 L12.75,0 Z" id="Shape"></path>
                <path d="M15.225,19.9375 L10,13.75 L10,17.1875 C10,18.2875 9.0375,19.25 7.9375,19.25 L3.125,19.25 C2.3,19.25 1.75,18.7 1.75,17.875 C1.75,17.05 2.3,16.5 3.125,16.5 L6.5625,16.5 C6.975,16.5 7.25,16.225 7.25,15.8125 L7.25,13.0625 C7.25,12.1 7.3875,11.275 7.8,10.3125 L8.7625,8.25 L7.6625,8.25 C6.975,8.25 6.425,8.525 6.0125,9.075 L5.325,10.0375 C5.05,10.5875 4.3625,10.725 3.675,10.45 C3.125,10.0375 2.85,9.2125 3.4,8.6625 L4.225,7.5625 C5.1875,6.1875 6.8375,5.5 8.4875,5.5 L11.2375,5.5 L11.375,5.0875 C10.55,4.675 10,3.7125 10,2.75 C10,1.2375 11.2375,0 12.75,0 L3.125,0 L3.125,6.7375 L2.3,7.8375 C1.8875,8.3875 1.6125,9.075 1.75,9.9 C1.8875,10.5875 2.3,11.275 2.9875,11.6875 C2.9875,11.6875 2.9875,11.6875 2.9875,11.6875 L2.9875,15.125 C1.475,15.125 0.2375,16.3625 0.2375,17.875 C0.2375,19.3875 1.475,20.625 2.9875,20.625 L2.9875,22 L18.9375,22 C17.425,22 16.05,21.175 15.225,19.9375 Z" id="Shape"></path>
                <path d="M14.675,10.0375 L13.7125,8.9375 L12.8875,11 C12.6125,11.6875 12.475,12.2375 12.8875,12.7875 L19.625,21.175 L19.625,11 L16.7375,11 C15.9125,11 15.225,10.725 14.675,10.0375 Z" id="Shape"></path>
            </g>
            <rect id="Rectangle-14" x="0" y="0" width="24" height="24"></rect>
        </g>
    </g>
</svg>