<?xml version="1.0" encoding="UTF-8"?>
<svg width="158px" height="50px" viewBox="0 0 158 50" version="1.1" xmlns="http://www.w3.org/2000/svg" xmlns:xlink="http://www.w3.org/1999/xlink">
    <!-- Generator: Sketch 51.2 (57519) - http://www.bohemiancoding.com/sketch -->
    <title>Logo_letter</title>
    <desc>Created with Sketch.</desc>
    <defs>
        <path d="M120.764111,11.6287681 L128.347604,11.6287681 C130.181273,11.6287681 131.819255,12.9693478 131.9932,14.7947101 C132.192512,16.888913 130.551631,18.6497826 128.498356,18.6497826 L108.661383,18.6497826 C108.430906,18.6497826 108.322916,18.3751449 108.486714,18.2128261 C109.277439,17.4265942 109.768833,16.3403623 109.768833,15.1396377 C109.768833,13.938913 109.277439,12.8526812 108.486714,12.0664493 C108.322916,11.9041304 108.430906,11.6287681 108.661383,11.6287681 L109.518062,11.6287681 L109.518062,8.86355072 C109.518062,7.82007246 109.839861,6.96862319 110.484182,6.30702899 C111.127053,5.64688406 111.971411,5.31572464 113.015081,5.31572464 C114.05875,5.31572464 114.910356,5.64688406 115.572072,6.30702899 C116.232338,6.96862319 116.563558,7.82007246 116.563558,8.86355072 L116.563558,11.6287681 L120.764111,11.6287681 L120.764111,10.9042754 L120.764111,11.628913 Z M18.6816156,38.0810145 C13.463267,38.0810145 9.04506514,36.2730435 5.42701009,32.6549275 C1.80823028,29.0382609 -7.24770642e-05,24.6201449 -7.24770642e-05,19.4027536 C-7.24770642e-05,14.1853623 1.80823028,9.76869565 5.42701009,6.15057971 C9.04506514,2.53318841 13.463267,0.724492754 18.6816156,0.724492754 C19.7252853,0.724492754 20.5776156,1.04695652 21.2386064,1.68971014 C21.8988725,2.33391304 22.2300927,3.17666667 22.2300927,4.22014493 C22.2300927,5.26362319 21.8988725,6.11652174 21.2386064,6.77666667 C20.5776156,7.43753623 19.7252853,7.76797101 18.6816156,7.76797101 C15.4114505,7.76797101 12.6544229,8.88971014 10.410533,11.1331884 C8.16664312,13.3766667 7.04469817,16.133913 7.04469817,19.4027536 C7.04469817,22.6723188 8.16664312,25.4288406 10.410533,27.6723188 C12.6544229,29.9157971 15.4114505,31.0375362 18.6816156,31.0375362 C19.7252853,31.0375362 20.5776156,31.3686957 21.2386064,32.0288406 C21.8988725,32.6904348 22.2300927,33.5418841 22.2300927,34.5853623 C22.2300927,35.6288406 21.8988725,36.4723188 21.2386064,37.1157971 C20.5776156,37.7592754 19.7252853,38.0810145 18.6816156,38.0810145 Z M47.5386486,34.4811594 C47.5386486,35.5246377 47.2074284,36.3681159 46.5471624,37.0115942 C45.8854468,37.6543478 45.0331165,37.9768116 43.9901716,37.9768116 C42.9465018,37.9768116 42.102144,37.6543478 41.4592725,37.0115942 C40.8149514,36.3681159 40.493878,35.5246377 40.493878,34.4811594 L40.4416945,22.6376812 C40.4416945,21.4898551 40.0321991,20.5072464 39.2153826,19.6898551 C38.3978413,18.8724638 37.4150523,18.4637681 36.2670156,18.4637681 C35.0834651,18.4637681 34.0840064,18.8637681 33.2664651,19.6637681 C32.4489239,20.4644928 32.0401532,21.4550725 32.0401532,22.6376812 L32.0401532,34.4811594 C32.0401532,35.5246377 31.708933,36.3681159 31.048667,37.0115942 C30.3869514,37.6543478 29.5353459,37.9768116 28.4916761,37.9768116 C27.4480064,37.9768116 26.6036486,37.6543478 25.9607771,37.0115942 C25.316456,36.3681159 24.9953826,35.5246377 24.9953826,34.4811594 L24.9953826,4.22028986 C24.9953826,3.17681159 25.316456,2.33405797 25.9607771,1.68985507 C26.6036486,1.04637681 27.4480064,0.724637681 28.4916761,0.724637681 C29.5353459,0.724637681 30.3869514,1.04637681 31.048667,1.68985507 C31.708933,2.33405797 32.0401532,3.17681159 32.0401532,4.22028986 L32.0401532,12.2028986 C33.3614101,11.6811594 34.771089,11.4202899 36.2670156,11.4202899 C39.432089,11.4202899 42.102144,12.4985507 44.2771807,14.6550725 C46.4507679,16.8123188 47.5386486,19.4731884 47.5386486,22.6376812 L47.5386486,34.4811594 Z M63.6626936,38.0810145 C59.9054826,38.0810145 56.7483817,36.7947826 54.1913908,34.2201449 C51.6344,31.6469565 50.3559046,28.4810145 50.3559046,24.7244928 C50.3559046,20.967971 51.6344,17.8114493 54.1913908,15.2549275 C56.7483817,12.6984058 59.9054826,11.4201449 63.6626936,11.4201449 C67.4199046,11.4201449 70.584978,12.6984058 73.1600881,15.2549275 C75.7337486,17.8114493 77.0216661,20.967971 77.0216661,24.7244928 L77.0216661,34.4810145 C77.0216661,35.5244928 76.6911706,36.367971 76.029455,37.0114493 C75.3684642,37.6549275 74.5168587,37.9766667 73.473189,37.9766667 C72.4295193,37.9766667 71.5858862,37.6549275 70.9422899,37.0114493 C70.2979688,36.367971 69.9768954,35.5244928 69.9768954,34.4810145 L69.9768954,24.7244928 C69.9768954,22.9853623 69.3586661,21.5078261 68.1243817,20.2897101 C66.8886477,19.0730435 65.4014183,18.4636232 63.6626936,18.4636232 C61.923244,18.4636232 60.4447119,19.0730435 59.2270972,20.2897101 C58.0087578,21.5078261 57.4006752,22.9853623 57.4006752,24.7244928 C57.4006752,26.4643478 58.0087578,27.9513043 59.2270972,29.1853623 C60.4447119,30.4201449 61.923244,31.0375362 63.6626936,31.0375362 C64.7063633,31.0375362 65.5579688,31.36 66.2196844,32.0027536 C66.8799505,32.6469565 67.2111706,33.4897101 67.2111706,34.5331884 C67.2111706,35.5766667 66.8799505,36.4295652 66.2196844,37.0897101 C65.5579688,37.7498551 64.7063633,38.0810145 63.6626936,38.0810145 Z M146.16609,38.0810145 C142.964778,38.0810145 140.286026,37.0034783 138.129108,34.8462319 C135.972191,32.6904348 134.893732,30.0121739 134.893732,26.8114493 L134.893732,22.1462319 C134.893732,21.102029 135.21553,20.2592754 135.859127,19.6150725 C136.502723,18.9723188 137.347081,18.6498551 138.390026,18.6498551 C140.755677,18.6498551 141.939228,19.8157971 141.939228,22.1462319 L141.939228,26.8114493 C141.939228,27.9947826 142.347273,28.9947826 143.164815,29.8114493 C143.982356,30.6288406 144.982539,31.0375362 146.16609,31.0375362 C147.348191,31.0375362 148.339677,30.6288406 149.140549,29.8114493 C149.939971,28.9947826 150.340769,27.9947826 150.340769,26.8114493 L150.340769,15.0201449 C150.340769,13.9766667 150.670539,13.133913 151.332255,12.4897101 C151.992521,11.8462319 152.845576,11.5244928 153.888521,11.5244928 C154.932916,11.5244928 155.775824,11.8462319 156.41942,12.4897101 C157.063017,13.133913 157.384815,13.9766667 157.384815,15.0201449 L157.384815,38.2897101 C157.384815,41.4542029 156.297659,44.1244928 154.123347,46.2984058 C151.949035,48.4715942 149.27898,49.5592754 146.113906,49.5592754 L138.442934,49.5592754 C137.398539,49.5592754 136.546209,49.2368116 135.885218,48.594058 C135.224228,47.9505797 134.893732,47.1071014 134.893732,46.0636232 C134.893732,45.0208696 135.224228,44.1672464 135.885218,43.5078261 C136.546209,42.8462319 137.398539,42.5157971 138.442934,42.5157971 L146.113906,42.5157971 C147.261943,42.5157971 148.253429,42.0976812 149.08764,41.2636232 C149.923301,40.4288406 150.340769,39.4375362 150.340769,38.2897101 L150.340769,37.2984058 C149.018062,37.8201449 147.627228,38.0810145 146.16609,38.0810145 Z M120.764111,18.6500725 L120.764111,19.3747101 L120.764111,18.6500725 Z M103.152619,22.8463043 C104.1615,22.8463043 104.996436,23.1774638 105.657427,23.8376087 C106.317693,24.4984783 106.648913,25.3332609 106.648913,26.3419565 L106.648913,26.8115217 C106.648913,29.9767391 105.570454,32.647029 103.413537,34.8202174 C101.256619,36.9941304 98.5952615,38.081087 95.4301881,38.081087 C92.2281514,38.081087 89.5493991,37.0035507 87.3924817,34.8463043 C85.2355642,32.6897826 84.1578303,30.0122464 84.1578303,26.8115217 L84.1578303,20.0267391 L91.2026009,20.0267391 L91.2026009,26.8115217 C91.2026009,27.9941304 91.6113716,28.9948551 92.4289128,29.8115217 C93.2464541,30.628913 94.2466376,31.0376087 95.4301881,31.0376087 C96.612289,31.0376087 97.6037752,30.628913 98.403922,29.8115217 C99.2040688,28.9948551 99.6041422,27.9941304 99.6041422,26.8115217 L99.6041422,26.3419565 C99.6041422,25.3332609 99.9433349,24.4984783 100.62172,23.8376087 C101.300106,23.1774638 102.143014,22.8463043 103.152619,22.8463043 Z M128.513286,22.8463043 C129.522167,22.8463043 130.357103,23.1774638 131.018094,23.8376087 C131.67836,24.4984783 132.00958,25.3332609 132.00958,26.3419565 L132.00958,26.8115217 C132.00958,29.9767391 130.931121,32.647029 128.774204,34.8202174 C126.617286,36.9941304 123.955928,38.081087 120.790855,38.081087 C117.589543,38.081087 114.910066,37.0035507 112.753873,34.8463043 C110.596231,32.6897826 109.518497,30.0122464 109.518497,26.8115217 L109.518497,20.0267391 L116.563993,20.0267391 L116.563993,26.8115217 C116.563993,27.9941304 116.972039,28.9948551 117.78958,29.8115217 C118.607121,30.628913 119.607305,31.0376087 120.790855,31.0376087 C121.972956,31.0376087 122.964442,30.628913 123.764589,29.8115217 C124.564736,28.9948551 124.964809,27.9941304 124.964809,26.8115217 L124.964809,26.3419565 C124.964809,25.3332609 125.304002,24.4984783 125.982387,23.8376087 C126.660772,23.1774638 127.503681,22.8463043 128.513286,22.8463043 Z M104.896562,18.6500725 L83.0932872,18.6500725 C81.1545257,18.6500725 79.5824982,17.0783333 79.5824982,15.1392029 C79.5824982,13.2007971 81.1545257,11.629058 83.0932872,11.629058 L84.1572505,11.629058 L84.1572505,8.86384058 C84.1572505,7.82036232 84.4790486,6.96818841 85.122645,6.3065942 C85.7662413,5.64644928 86.6105991,5.31601449 87.6542688,5.31601449 C88.6979385,5.31601449 89.549544,5.64644928 90.2112596,6.3065942 C90.8715257,6.96818841 91.2027459,7.82036232 91.2027459,8.86384058 L91.2027459,11.629058 L104.896562,11.629058 C106.813581,11.6544203 108.408076,13.2167391 108.408076,15.1392029 C108.408076,17.0623913 106.813581,18.6247101 104.896562,18.6500725 Z M114.923619,44.8949275 C114.923619,47.4710145 112.83483,49.5594203 110.258271,49.5594203 L105.908922,49.5594203 C103.332362,49.5594203 101.243573,47.4710145 101.243573,44.8949275 C101.243573,43.5811594 102.308986,42.5152174 103.62372,42.5152174 L112.543472,42.5152174 C113.858206,42.5152174 114.923619,43.5811594 114.923619,44.8949275 Z" id="path-1"></path>
        <filter x="-0.6%" y="-2.0%" width="101.9%" height="108.2%" filterUnits="objectBoundingBox" id="filter-2">
            <feOffset dx="1" dy="2" in="SourceAlpha" result="shadowOffsetOuter1"></feOffset>
            <feColorMatrix values="0 0 0 0 1   0 0 0 0 1   0 0 0 0 1  0 0 0 0.12 0" type="matrix" in="shadowOffsetOuter1"></feColorMatrix>
        </filter>
    </defs>
    <g id="Logo_letter" stroke="none" stroke-width="1" fill="none" fill-rule="evenodd">
        <g id="Combined-Shape">
            <g>
                <use fill="black" fill-opacity="1" filter="url(#filter-2)" xlink:href="#path-1"></use>
                <use fill="#FFF47F" fill-rule="evenodd" xlink:href="#path-1"></use>
            </g>
        </g>
    </g>
</svg>