<?xml version="1.0" encoding="UTF-8"?>
<svg width="150px" height="85px" viewBox="0 0 150 85" version="1.1" xmlns="http://www.w3.org/2000/svg" xmlns:xlink="http://www.w3.org/1999/xlink">
    <!-- Generator: Sketch 51.2 (57519) - http://www.bohemiancoding.com/sketch -->
    <title>Logo_symbol</title>
    <desc>Created with Sketch.</desc>
    <defs>
        <path d="M78.8877652,12.5210064 L93.2121403,12.5210064 C96.6757386,12.5210064 99.769704,15.0532126 100.098267,18.5011192 C100.474745,22.4568357 97.3753034,25.7829227 93.4968946,25.7829227 L56.0270577,25.7829227 C55.5917121,25.7829227 55.3877295,25.2641626 55.697126,24.9575604 C57.1907172,23.4724557 58.1189068,21.4206844 58.1189068,19.152649 C58.1189068,16.8846135 57.1907172,14.8328422 55.697126,13.3477375 C55.3877295,13.0411353 55.5917121,12.5210064 56.0270577,12.5210064 L57.645229,12.5210064 L57.645229,7.29781804 C57.645229,5.32680354 58.2530699,3.71851047 59.4701209,2.46883253 C60.6844338,1.22189211 62.2793319,0.59636876 64.2507081,0.59636876 C66.2220842,0.59636876 67.8306724,1.22189211 69.0805796,2.46883253 C70.3277488,3.71851047 70.953387,5.32680354 70.953387,7.29781804 L70.953387,12.5210064 L78.8877652,12.5210064 L78.8877652,11.1525201 L78.8877652,12.5212802 Z M126.869281,62.4863607 C120.822358,62.4863607 115.762493,60.4510145 111.688316,56.3762158 C107.614138,52.3041546 105.57705,47.2452174 105.57705,41.1994042 L105.57705,32.3873269 C105.57705,30.4149436 106.184891,28.8230757 107.400572,27.606248 C108.616254,26.3921578 110.211152,25.7830596 112.18116,25.7830596 C116.649612,25.7830596 118.885208,27.9853945 118.885208,32.3873269 L118.885208,41.1994042 C118.885208,43.4345894 119.655961,45.3234783 121.200206,46.8660709 C122.74445,48.4100322 124.633686,49.1820129 126.869281,49.1820129 C129.102138,49.1820129 130.974946,48.4100322 132.487703,46.8660709 C133.997722,45.3234783 134.754786,43.4345894 134.754786,41.1994042 L134.754786,18.9269404 C134.754786,16.9559259 135.377686,15.364058 136.627593,14.1472303 C137.874762,12.9317713 139.486088,12.3240419 141.456095,12.3240419 C143.428841,12.3240419 145.021001,12.9317713 146.236683,14.1472303 C147.452365,15.364058 148.060206,16.9559259 148.060206,18.9269404 L148.060206,62.8805636 C148.060206,68.8579388 146.006689,73.9018196 141.899655,78.0080998 C137.792621,82.1130113 132.749184,84.1675201 126.770712,84.1675201 L112.281097,84.1675201 C110.308352,84.1675201 108.698395,83.5584219 107.449857,82.3443317 C106.201319,81.1288728 105.57705,79.5356361 105.57705,77.5646216 C105.57705,75.5949758 106.201319,73.9825765 107.449857,72.7370048 C108.698395,71.4873269 110.308352,70.8631723 112.281097,70.8631723 L126.770712,70.8631723 C128.939226,70.8631723 130.812033,70.0733977 132.387765,68.4979549 C133.966235,66.9211433 134.754786,65.0486795 134.754786,62.8805636 L134.754786,61.0080998 C132.25634,61.9936071 129.629208,62.4863607 126.869281,62.4863607 Z M78.8877652,25.7834702 L78.8877652,27.1522303 L78.8877652,25.7834702 Z M45.6216142,33.709686 C47.5272778,33.709686 49.1043787,34.3352093 50.3529169,35.5821498 C51.6000861,36.8304589 52.2257243,38.4072705 52.2257243,40.3125845 L52.2257243,41.1995411 C52.2257243,47.178285 50.1886356,52.2221659 46.1144582,56.3270773 C42.0402808,60.4333575 37.0132717,62.4864976 31.0347997,62.4864976 C24.9865082,62.4864976 19.9266427,60.4511514 15.8524653,56.3763527 C11.778288,52.3029227 9.7425683,47.2453543 9.7425683,41.1995411 L9.7425683,28.3838406 L23.0493573,28.3838406 L23.0493573,41.1995411 C23.0493573,43.4333575 23.8214796,45.3236151 25.3657243,46.8662077 C26.9099689,48.4101691 28.7992044,49.1821498 31.0347997,49.1821498 C33.267657,49.1821498 35.1404643,48.4101691 36.6518527,46.8662077 C38.1632411,45.3236151 38.9189353,43.4333575 38.9189353,41.1995411 L38.9189353,40.3125845 C38.9189353,38.4072705 39.5596325,36.8304589 40.841027,35.5821498 C42.1224215,34.3352093 43.7145815,33.709686 45.6216142,33.709686 Z M93.5250962,33.709686 C95.4307598,33.709686 97.0078608,34.3352093 98.256399,35.5821498 C99.5035682,36.8304589 100.129206,38.4072705 100.129206,40.3125845 L100.129206,41.1995411 C100.129206,47.178285 98.0921176,52.2221659 94.0179403,56.3270773 C89.9437629,60.4333575 84.9167537,62.4864976 78.9382818,62.4864976 C72.8913592,62.4864976 67.8301248,60.4511514 63.7573164,56.3763527 C59.68177,52.3029227 57.6460504,47.2453543 57.6460504,41.1995411 L57.6460504,28.3838406 L70.9542084,28.3838406 L70.9542084,41.1995411 C70.9542084,43.4333575 71.7249617,45.3236151 73.2692063,46.8662077 C74.813451,48.4101691 76.7026864,49.1821498 78.9382818,49.1821498 C81.171139,49.1821498 83.0439464,48.4101691 84.5553348,46.8662077 C86.0667231,45.3236151 86.8224173,43.4333575 86.8224173,41.1995411 L86.8224173,40.3125845 C86.8224173,38.4072705 87.4631146,36.8304589 88.7445091,35.5821498 C90.0259036,34.3352093 91.6180636,33.709686 93.5250962,33.709686 Z M48.915729,25.7834702 L7.73176463,25.7834702 C4.06965963,25.7834702 1.10027431,22.8146296 1.10027431,19.1518277 C1.10027431,15.4903945 4.06965963,12.5215539 7.73176463,12.5215539 L9.74147309,12.5215539 L9.74147309,7.29836554 C9.74147309,5.32735105 10.3493141,3.71768921 11.564996,2.46801127 C12.780678,1.22107085 14.375576,0.596916264 16.3469522,0.596916264 C18.3183283,0.596916264 19.9269165,1.22107085 21.1768238,2.46801127 C22.423993,3.71768921 23.0496311,5.32735105 23.0496311,7.29836554 L23.0496311,12.5215539 L48.915729,12.5215539 C52.5367636,12.5694605 55.5485883,15.5205072 55.5485883,19.1518277 C55.5485883,22.7845169 52.5367636,25.7355636 48.915729,25.7834702 Z M67.8557253,75.3570853 C67.8557253,80.2230274 63.910235,84.1677939 59.0434001,84.1677939 L50.8279638,84.1677939 C45.961129,84.1677939 42.0156386,80.2230274 42.0156386,75.3570853 C42.0156386,72.8755233 44.0280851,70.8620773 46.5114715,70.8620773 L63.3598925,70.8620773 C65.8432788,70.8620773 67.8557253,72.8755233 67.8557253,75.3570853 Z" id="path-1"></path>
        <filter x="-1.0%" y="-1.8%" width="103.4%" height="107.2%" filterUnits="objectBoundingBox" id="filter-2">
            <feOffset dx="2" dy="3" in="SourceAlpha" result="shadowOffsetOuter1"></feOffset>
            <feColorMatrix values="0 0 0 0 1   0 0 0 0 1   0 0 0 0 1  0 0 0 0.12 0" type="matrix" in="shadowOffsetOuter1"></feColorMatrix>
        </filter>
    </defs>
    <g id="Logo_symbol" stroke="none" stroke-width="1" fill="none" fill-rule="evenodd">
        <g id="Combined-Shape">
            <g>
                <use fill="black" fill-opacity="1" filter="url(#filter-2)" xlink:href="#path-1"></use>
                <use fill="#FFF47F" fill-rule="evenodd" xlink:href="#path-1"></use>
            </g>
        </g>
    </g>
</svg>