<?xml version="1.0" encoding="UTF-8"?>
<svg width="36px" height="36px" viewBox="0 0 36 36" version="1.1" xmlns="http://www.w3.org/2000/svg" xmlns:xlink="http://www.w3.org/1999/xlink">
    <!-- Generator: Sketch 51.2 (57519) - http://www.bohemiancoding.com/sketch -->
    <title>Icon_emotion_sad_selected</title>
    <desc>Created with Sketch.</desc>
    <defs>
        <polygon id="path-1" points="0 0.3815 7.42335 0.3815 7.42335 6.80749738 0 6.80749738"></polygon>
    </defs>
    <g id="Symbols" stroke="none" stroke-width="1" fill="none" fill-rule="evenodd">
        <g id="Icon_emotion_sad_selected">
            <g id="Icon_emotion_sad">
                <g id="Group-20" transform="translate(0.000000, 2.000000)">
                    <path d="M33.6148,16.0851 C33.6148,24.9215719 26.4507705,32.0851 17.6148,32.0851 C8.77832812,32.0851 1.6148,24.9215719 1.6148,16.0851 C1.6148,7.24862812 8.77832812,0.0851 17.6148,0.0851 C26.4507705,0.0851 33.6148,7.24862812 33.6148,16.0851" id="Fill-1" stroke="#A766FE" stroke-width="2" fill="#FFE770"></path>
                    <path d="M24.8367,15.28335 C24.0137,15.28335 23.3057,15.00535 22.7902,14.47985 C21.8682,13.53935 21.8682,12.15685 21.8712,12.00235 C21.8802,11.55435 22.2502,11.20085 22.6982,11.20735 C23.1462,11.21585 23.5027,11.58635 23.4937,12.03435 C23.4922,12.26585 23.5712,12.96285 23.9537,13.34785 C24.1622,13.55835 24.4512,13.66035 24.8367,13.66035 C25.2232,13.66035 25.5142,13.55635 25.7262,13.34185 C26.1877,12.87435 26.1992,12.01685 26.1987,12.00835 C26.1937,11.56035 26.5527,11.19285 27.0007,11.18785 C27.4477,11.17835 27.8162,11.54135 27.8217,11.98935 C27.8232,12.14535 27.8127,13.53935 26.8802,14.48285 C26.3622,15.00635 25.6557,15.28335 24.8367,15.28335" id="Fill-4" fill="#403408"></path>
                    <path d="M10.2889,15.28335 C9.4654,15.28335 8.7579,15.00535 8.2424,14.47985 C7.3204,13.53935 7.3204,12.15685 7.3234,12.00235 C7.3324,11.55435 7.6989,11.19585 8.1509,11.20735 C8.5989,11.21585 8.9549,11.58635 8.9459,12.03435 C8.9444,12.26585 9.0239,12.96285 9.4059,13.34785 C9.6144,13.55835 9.9034,13.66035 10.2889,13.66035 C10.6754,13.66035 10.9664,13.55635 11.1779,13.34185 C11.6404,12.87435 11.6509,12.01685 11.6509,12.00835 C11.6459,11.56035 12.0049,11.19285 12.4529,11.18785 C12.9034,11.19085 13.2684,11.54135 13.2739,11.98935 C13.2754,12.14535 13.2649,13.53935 12.3324,14.48285 C11.8149,15.00635 11.1084,15.28335 10.2889,15.28335" id="Fill-6" fill="#403408"></path>
                    <path d="M11.8115074,23.352 C11.7370074,23.352 11.6610074,23.3415 11.5860074,23.32 C11.1565074,23.1955 10.9085074,22.749 11.0315074,22.319 C11.5075074,20.6525 13.4840074,17.5 17.5555074,17.5 C21.6320074,17.5 23.5735074,20.6355 24.0305074,22.2935 C24.1495074,22.7255 23.8960074,23.1725 23.4640074,23.2915 C23.0315074,23.4105 22.5855074,23.1565 22.4660074,22.725 C22.4250074,22.581 21.3965074,19.1225 17.5555074,19.1225 C13.7080074,19.1225 12.6345074,22.6195 12.5910074,22.768 C12.4865074,23.122 12.1625074,23.352 11.8115074,23.352" id="Fill-8" fill="#403408"></path>
                    <path d="M34.51195,16.6718 C35.61495,17.5493 35.79795,19.1553 34.92045,20.2583 C34.04295,21.3618 32.43695,21.5448 31.33395,20.6678 C30.23045,19.7898 28.05195,14.7963 28.05195,14.7963 C28.05195,14.7963 33.40845,15.7943 34.51195,16.6718" id="Fill-10" fill="#2FA7BF"></path>
                    <g id="Group-14" transform="translate(0.000000, 14.414800)">
                        <mask id="mask-2" fill="white">
                            <use xlink:href="#path-1"></use>
                        </mask>
                        <g id="Clip-13"></g>
                        <path d="M0.96335,2.257 C-0.13965,3.1345 -0.32265,4.7405 0.55485,5.8435 C1.43235,6.947 3.03835,7.13 4.14135,6.253 C5.24485,5.375 7.42335,0.3815 7.42335,0.3815 C7.42335,0.3815 2.06685,1.3795 0.96335,2.257" id="Fill-12" fill="#2FA7BF" mask="url(#mask-2)"></path>
                    </g>
                </g>
                <rect id="Rectangle-25-Copy-2" fill-rule="nonzero" x="0" y="0" width="36" height="36"></rect>
            </g>
        </g>
    </g>
</svg>