<?xml version="1.0" encoding="UTF-8"?>
<svg width="32px" height="32px" viewBox="0 0 32 32" version="1.1" xmlns="http://www.w3.org/2000/svg" xmlns:xlink="http://www.w3.org/1999/xlink">
    <!-- Generator: Sketch 51.2 (57519) - http://www.bohemiancoding.com/sketch -->
    <title>Icon_emotion_sentimental</title>
    <desc>Created with Sketch.</desc>
    <defs></defs>
    <g id="Symbols" stroke="none" stroke-width="1" fill="none" fill-rule="evenodd">
        <g id="Icon_emotion_sentimental">
            <g>
                <g id="Group-15" transform="translate(2.000000, 2.000000)">
                    <path d="M28,14.3573662 C28,22.089279 21.7314742,28.3573662 14,28.3573662 C6.26808711,28.3573662 0,22.089279 0,14.3573662 C0,6.62545326 6.26808711,0.357366154 14,0.357366154 C21.7314742,0.357366154 28,6.62545326 28,14.3573662" id="Fill-1" fill="#FFE770"></path>
                    <path d="M7.20103125,11.6303815 L5.4844125,11.6303815 C5.0897875,11.6303815 4.766475,11.3120431 4.766475,10.9234892 C4.766475,10.5349354 5.0897875,10.2165969 5.4844125,10.2165969 L8.511475,10.2165969 C8.9065375,10.2165969 9.2294125,10.5349354 9.2294125,10.9234892 L9.2294125,11.2892123 C9.2294125,11.307081 9.22799623,11.3246442 9.22526838,11.3417977 C9.22792445,11.3711167 9.22928125,11.4007906 9.22928125,11.4307631 L9.22928125,13.8275631 C9.22928125,14.3767938 8.77296875,14.8260862 8.21515625,14.8260862 C7.65734375,14.8260862 7.20103125,14.3767938 7.20103125,13.8275631 L7.20103125,11.6303815 Z M19.9133375,11.6303815 L18.1967187,11.6303815 C17.8020937,11.6303815 17.4787812,11.3120431 17.4787812,10.9234892 C17.4787812,10.5349354 17.8020937,10.2165969 18.1967187,10.2165969 L21.2237812,10.2165969 C21.6188437,10.2165969 21.9417187,10.5349354 21.9417187,10.9234892 L21.9417187,11.3391815 C21.9417187,11.3502729 21.9410816,11.3612239 21.9398415,11.3720008 C21.941,11.3914483 21.9415875,11.4110411 21.9415875,11.4307631 L21.9415875,13.8275631 C21.9415875,14.3767938 21.485275,14.8260862 20.9274625,14.8260862 C20.36965,14.8260862 19.9133375,14.3767938 19.9133375,13.8275631 L19.9133375,11.6303815 Z" id="Combined-Shape" fill="#403408"></path>
                    <path d="M6.218275,15.9097723 C6.218275,17.0146954 5.3087125,17.9102646 4.186525,17.9102646 C3.0643375,17.9102646 2.154775,17.0146954 2.154775,15.9097723 C2.154775,14.8048492 3.0643375,13.90928 4.186525,13.90928 C5.3087125,13.90928 6.218275,14.8048492 6.218275,15.9097723" id="Fill-12" fill="#FF758A"></path>
                    <path d="M25.7705875,15.9097723 C25.7705875,17.0146954 24.861025,17.9102646 23.7388375,17.9102646 C22.61665,17.9102646 21.7070875,17.0146954 21.7070875,15.9097723 C21.7070875,14.8048492 22.61665,13.90928 23.7388375,13.90928 C24.861025,13.90928 25.7705875,14.8048492 25.7705875,15.9097723" id="Fill-14" fill="#FF758A"></path>
                    <path d="M6.7564,8.72471385 C6.1264,8.72471385 5.6154,8.52182154 5.5843375,8.50932923 C5.3774,8.42532923 5.278525,8.19185231 5.3638375,7.98766769 C5.4487125,7.78434462 5.6849625,7.68699077 5.8923375,7.77012923 C5.9037125,7.77443692 6.7139625,8.08976 7.3684625,7.81363692 C7.688275,7.67923692 7.919275,7.42637538 8.0754625,7.03997538 C8.15815,6.83492923 8.3944,6.73499077 8.6022125,6.81640615 C8.8104625,6.89782154 8.9124,7.13043692 8.829275,7.33548308 C8.5917125,7.92305231 8.2058375,8.33228308 7.6817125,8.55111385 C7.3719625,8.68034462 7.0508375,8.72471385 6.7564,8.72471385" id="Fill-16" fill="#403408"></path>
                    <path d="M21.5789438,8.78976 C21.4293188,8.78976 21.2858188,8.70834462 21.2149438,8.56748308 C21.2114438,8.56102154 20.8203188,7.80674462 20.1518188,7.59394462 C19.8223813,7.48840615 19.4793813,7.53148308 19.1031313,7.72360615 C18.9049438,7.82526769 18.6595063,7.74945231 18.5562563,7.55345231 C18.4530063,7.35745231 18.5308813,7.11622154 18.7295063,7.01499077 C19.3030688,6.72163692 19.8674438,6.66176 20.4081938,6.83579077 C21.4017563,7.15628308 21.9206313,8.17031385 21.9425063,8.21296 C22.0413813,8.41068308 21.9591313,8.65062154 21.7583188,8.74840615 C21.7005688,8.77640615 21.6393188,8.78976 21.5789438,8.78976" id="Fill-18" fill="#403408"></path>
                    <path d="M8.89628322,19.7539085 C6.43928322,19.7539085 5.53453322,18.8557546 5.40153322,18.7067085 C5.17972072,18.4581546 5.20422072,18.0795085 5.45665822,17.8606777 C5.70515822,17.6461546 6.08228322,17.6664008 6.30584572,17.9046162 C6.35878322,17.9545854 8.00115822,19.4316931 13.4510957,17.7396315 C20.2502832,15.6288623 22.1367832,17.6991392 22.3292832,17.9425238 C22.5362207,18.2031392 22.4889707,18.5800623 22.2238457,18.7833854 C21.9595957,18.9871392 21.5767832,18.9406162 21.3698457,18.67957 C21.3667832,18.6774162 19.7878457,17.0280008 13.8168457,18.8824623 C11.7277832,19.5312008 10.1195332,19.7539085 8.89628322,19.7539085" id="Fill-20" fill="#403408"></path>
                </g>
                <rect id="Rectangle-25-Copy" fill-rule="nonzero" x="0" y="0" width="32" height="32"></rect>
            </g>
        </g>
    </g>
</svg>