<?xml version="1.0" encoding="UTF-8"?>
<svg width="32px" height="32px" viewBox="0 0 32 32" version="1.1" xmlns="http://www.w3.org/2000/svg" xmlns:xlink="http://www.w3.org/1999/xlink">
    <!-- Generator: Sketch 51.2 (57519) - http://www.bohemiancoding.com/sketch -->
    <title>Icon_emotion_sad</title>
    <desc>Created with Sketch.</desc>
    <defs>
        <polygon id="path-1" points="0.10045 0.0744625 28.026075 0.0744625 28.026075 28 0.10045 28"></polygon>
        <polygon id="path-3" points="0 0.3338125 6.49543125 0.3338125 6.49543125 5.95656021 0 5.95656021"></polygon>
    </defs>
    <g id="Symbols" stroke="none" stroke-width="1" fill="none" fill-rule="evenodd">
        <g id="Icon_emotion_sad">
            <g>
                <g id="Group-20" transform="translate(1.000000, 2.000000)">
                    <g id="Group-3" transform="translate(1.312500, 0.000000)">
                        <mask id="mask-2" fill="white">
                            <use xlink:href="#path-1"></use>
                        </mask>
                        <g id="Clip-2"></g>
                        <path d="M28.10045,14.0744625 C28.10045,21.8063754 21.8319242,28.0744625 14.10045,28.0744625 C6.36853711,28.0744625 0.10045,21.8063754 0.10045,14.0744625 C0.10045,6.34254961 6.36853711,0.0744625 14.10045,0.0744625 C21.8319242,0.0744625 28.10045,6.34254961 28.10045,14.0744625" id="Fill-1" fill="#FFE770" mask="url(#mask-2)"></path>
                    </g>
                    <g id="Group-12" transform="translate(0.000000, 9.625000)">
                        <path d="M21.7321125,3.74793125 C21.0119875,3.74793125 20.3924875,3.50468125 19.941425,3.04486875 C19.134675,2.22193125 19.134675,1.01224375 19.1373,0.87705625 C19.145175,0.48505625 19.468925,0.17574375 19.860925,0.18143125 C20.252925,0.18886875 20.5648625,0.51305625 20.5569875,0.90505625 C20.555675,1.10761875 20.6248,1.71749375 20.9594875,2.05436875 C21.141925,2.23855625 21.3948,2.32780625 21.7321125,2.32780625 C22.0703,2.32780625 22.324925,2.23680625 22.510425,2.04911875 C22.9142375,1.64005625 22.9243,0.88974375 22.9238625,0.88230625 C22.9194875,0.49030625 23.2336125,0.16874375 23.6256125,0.16436875 C24.0167375,0.15605625 24.339175,0.47368125 24.3439875,0.86568125 C24.3453,1.00218125 24.3361125,2.22193125 23.520175,3.04749375 C23.066925,3.50555625 22.4487375,3.74793125 21.7321125,3.74793125" id="Fill-4" fill="#403408"></path>
                        <path d="M9.0027875,3.74793125 C8.282225,3.74793125 7.6631625,3.50468125 7.2121,3.04486875 C6.40535,2.22193125 6.40535,1.01224375 6.407975,0.87705625 C6.41585,0.48505625 6.7365375,0.17136875 7.1320375,0.18143125 C7.5240375,0.18886875 7.8355375,0.51305625 7.8276625,0.90505625 C7.82635,1.10761875 7.8959125,1.71749375 8.2301625,2.05436875 C8.4126,2.23855625 8.665475,2.32780625 9.0027875,2.32780625 C9.340975,2.32780625 9.5956,2.23680625 9.7806625,2.04911875 C10.18535,1.64005625 10.1945375,0.88974375 10.1945375,0.88230625 C10.1901625,0.49030625 10.5042875,0.16874375 10.8962875,0.16436875 C11.290475,0.16699375 11.60985,0.47368125 11.6146625,0.86568125 C11.615975,1.00218125 11.6067875,2.22193125 10.79085,3.04749375 C10.3380375,3.50555625 9.71985,3.74793125 9.0027875,3.74793125" id="Fill-6" fill="#403408"></path>
                        <path d="M10.335069,10.808 C10.2698815,10.808 10.2033815,10.7988125 10.1377565,10.78 C9.76194398,10.6710625 9.54494398,10.280375 9.65256898,9.904125 C10.069069,8.4459375 11.7985065,5.6875 15.361069,5.6875 C18.9280065,5.6875 20.626819,8.4310625 21.026694,9.8818125 C21.130819,10.2598125 20.9090065,10.6509375 20.5310065,10.7550625 C20.152569,10.8591875 19.762319,10.6369375 19.6577565,10.259375 C19.6218815,10.133375 18.721944,7.1071875 15.361069,7.1071875 C11.9945065,7.1071875 11.055194,10.1670625 11.0171315,10.297 C10.925694,10.60675 10.642194,10.808 10.335069,10.808" id="Fill-8" fill="#403408"></path>
                        <path d="M30.1979563,4.962825 C31.1630813,5.7306375 31.3232063,7.1358875 30.5553938,8.1010125 C29.7875813,9.066575 28.3823313,9.2267 27.4172063,8.459325 C26.4516438,7.691075 24.5454563,3.3217625 24.5454563,3.3217625 C24.5454563,3.3217625 29.2323938,4.1950125 30.1979563,4.962825" id="Fill-10" fill="#2FA7BF"></path>
                        <g id="Group-14" transform="translate(0.000000, 2.987950)">
                            <mask id="mask-4" fill="white">
                                <use xlink:href="#path-3"></use>
                            </mask>
                            <g id="Clip-13"></g>
                            <path d="M0.84293125,1.974875 C-0.12219375,2.7426875 -0.28231875,4.1479375 0.48549375,5.1130625 C1.25330625,6.078625 2.65855625,6.23875 3.62368125,5.471375 C4.58924375,4.703125 6.49543125,0.3338125 6.49543125,0.3338125 C6.49543125,0.3338125 1.80849375,1.2070625 0.84293125,1.974875" id="Fill-12" fill="#2FA7BF" mask="url(#mask-4)"></path>
                        </g>
                    </g>
                </g>
                <rect id="Rectangle-25-Copy-2" fill-rule="nonzero" x="0" y="0" width="32" height="32"></rect>
            </g>
        </g>
    </g>
</svg>