<?xml version="1.0" encoding="UTF-8"?>
<svg width="36px" height="36px" viewBox="0 0 36 36" version="1.1" xmlns="http://www.w3.org/2000/svg" xmlns:xlink="http://www.w3.org/1999/xlink">
    <!-- Generator: Sketch 51.2 (57519) - http://www.bohemiancoding.com/sketch -->
    <title>Icon_emotion_sentimental_selected</title>
    <desc>Created with Sketch.</desc>
    <defs></defs>
    <g id="Symbols" stroke="none" stroke-width="1" fill="none" fill-rule="evenodd">
        <g id="Icon_emotion_sentimental_selected">
            <g id="Icon_emotion_sentimental">
                <g id="Group-15" transform="translate(2.000000, 2.000000)">
                    <path d="M32,16.4084185 C32,25.2448903 24.8359705,32.4084185 16,32.4084185 C7.16352812,32.4084185 0,25.2448903 0,16.4084185 C0,7.57194658 7.16352812,0.408418462 16,0.408418462 C24.8359705,0.408418462 32,7.57194658 32,16.4084185" id="Fill-1" stroke="#A766FE" stroke-width="2" fill="#FFE770"></path>
                    <path d="M8.22975,13.2918646 L6.2679,13.2918646 C5.8169,13.2918646 5.4474,12.9280492 5.4474,12.4839877 C5.4474,12.0399262 5.8169,11.6761108 6.2679,11.6761108 L9.7274,11.6761108 C10.1789,11.6761108 10.5479,12.0399262 10.5479,12.4839877 L10.5479,12.9019569 C10.5479,12.9223783 10.5462814,12.9424505 10.5431639,12.9620545 C10.5461994,12.9955619 10.54775,13.029475 10.54775,13.0637292 L10.54775,15.8029292 C10.54775,16.4306215 10.02625,16.9440985 9.38875,16.9440985 C8.75125,16.9440985 8.22975,16.4306215 8.22975,15.8029292 L8.22975,13.2918646 Z M22.7581,13.2918646 L20.79625,13.2918646 C20.34525,13.2918646 19.97575,12.9280492 19.97575,12.4839877 C19.97575,12.0399262 20.34525,11.6761108 20.79625,11.6761108 L24.25575,11.6761108 C24.70725,11.6761108 25.07625,12.0399262 25.07625,12.4839877 L25.07625,12.9590646 C25.07625,12.9717404 25.0755218,12.9842558 25.0741046,12.9965724 C25.0754286,13.018798 25.0761,13.0411898 25.0761,13.0637292 L25.0761,15.8029292 C25.0761,16.4306215 24.5546,16.9440985 23.9171,16.9440985 C23.2796,16.9440985 22.7581,16.4306215 22.7581,15.8029292 L22.7581,13.2918646 Z" id="Combined-Shape" fill="#403408"></path>
                    <path d="M7.1066,18.1825969 C7.1066,19.4453662 6.0671,20.4688738 4.7846,20.4688738 C3.5021,20.4688738 2.4626,19.4453662 2.4626,18.1825969 C2.4626,16.9198277 3.5021,15.89632 4.7846,15.89632 C6.0671,15.89632 7.1066,16.9198277 7.1066,18.1825969" id="Fill-12" fill="#FF758A"></path>
                    <path d="M29.4521,18.1825969 C29.4521,19.4453662 28.4126,20.4688738 27.1301,20.4688738 C25.8476,20.4688738 24.8081,19.4453662 24.8081,18.1825969 C24.8081,16.9198277 25.8476,15.89632 27.1301,15.89632 C28.4126,15.89632 29.4521,16.9198277 29.4521,18.1825969" id="Fill-14" fill="#FF758A"></path>
                    <path d="M7.7216,9.97110154 C7.0016,9.97110154 6.4176,9.73922462 6.3821,9.72494769 C6.1456,9.62894769 6.0326,9.36211692 6.1301,9.12876308 C6.2271,8.89639385 6.4971,8.78513231 6.7341,8.88014769 C6.7471,8.88507077 7.6731,9.24544 8.4211,8.92987077 C8.7866,8.77627077 9.0506,8.48728615 9.2291,8.04568615 C9.3236,7.81134769 9.5936,7.69713231 9.8311,7.79017846 C10.0691,7.88322462 10.1856,8.14907077 10.0906,8.38340923 C9.8191,9.05491692 9.3781,9.52260923 8.7791,9.77270154 C8.4251,9.92039385 8.0581,9.97110154 7.7216,9.97110154" id="Fill-16" fill="#403408"></path>
                    <path d="M24.66165,10.04544 C24.49065,10.04544 24.32665,9.95239385 24.24565,9.79140923 C24.24165,9.78402462 23.79465,8.92199385 23.03065,8.67879385 C22.65415,8.55817846 22.26215,8.60740923 21.83215,8.82697846 C21.60565,8.94316308 21.32515,8.85651692 21.20715,8.63251692 C21.08915,8.40851692 21.17815,8.13282462 21.40515,8.01713231 C22.06065,7.68187077 22.70565,7.61344 23.32365,7.81233231 C24.45915,8.17860923 25.05215,9.33750154 25.07715,9.38624 C25.19015,9.61220923 25.09615,9.88642462 24.86665,9.99817846 C24.80065,10.0301785 24.73065,10.04544 24.66165,10.04544" id="Fill-18" fill="#403408"></path>
                    <path d="M10.1671808,22.5758954 C7.35918082,22.5758954 6.32518082,21.5494338 6.17318082,21.3790954 C5.91968082,21.0950338 5.94768082,20.6622954 6.23618082,20.4122031 C6.52018082,20.1670338 6.95118082,20.1901723 7.20668082,20.4624185 C7.26718082,20.5195262 9.14418082,22.2076492 15.3726808,20.2738646 C23.1431808,17.8615569 25.2991808,20.2275877 25.5191808,20.5057415 C25.7556808,20.8035877 25.7016808,21.2343569 25.3986808,21.4667262 C25.0966808,21.6995877 24.6591808,21.6464185 24.4226808,21.34808 C24.4191808,21.3456185 22.6146808,19.4605723 15.7906808,21.5799569 C13.4031808,22.3213723 11.5651808,22.5758954 10.1671808,22.5758954" id="Fill-20" fill="#403408"></path>
                </g>
                <rect id="Rectangle-25-Copy" fill-rule="nonzero" x="0" y="0" width="36" height="36"></rect>
            </g>
        </g>
    </g>
</svg>