<?xml version="1.0" encoding="UTF-8"?>
<svg width="36px" height="36px" viewBox="0 0 36 36" version="1.1" xmlns="http://www.w3.org/2000/svg" xmlns:xlink="http://www.w3.org/1999/xlink">
    <!-- Generator: Sketch 51.2 (57519) - http://www.bohemiancoding.com/sketch -->
    <title>Icon_emotion_joy_selected</title>
    <desc>Created with Sketch.</desc>
    <defs>
        <path d="M17.138,0.371692308 L0.774,0.418953846 C0.428,0.419446154 0.1895,0.764553846 0.3205,1.07963077 C1.002,2.71704615 3.2775,6.83963077 8.9215,6.83963077 C14.563,6.83963077 16.89,2.688 17.593,1.03630769 C17.7275,0.720246154 17.4875,0.371692308 17.1395,0.371692308 C17.139,0.371692308 17.1385,0.371692308 17.138,0.371692308 Z" id="path-1"></path>
        <path d="M16.8539502,0 L0.489950213,0.0472615385 C0.143950213,0.0477538462 -0.0945497866,0.392861538 0.0364502134,0.707938462 C0.717950213,2.34535385 2.99345021,6.46793846 8.63745021,6.46793846 C14.2789502,6.46793846 16.6059502,2.31630769 17.3089502,0.664615385 C17.4434502,0.348553846 17.2034502,0 16.8554502,0 C16.8549502,0 16.8544502,0 16.8539502,0" id="path-3"></path>
    </defs>
    <g id="Symbols" stroke="none" stroke-width="1" fill="none" fill-rule="evenodd">
        <g id="Icon_emotion_joy_selected">
            <g id="Icon_emotion_joy">
                <g id="Group-19" transform="translate(2.000000, 2.000000)">
                    <g id="Group-10" transform="translate(0.000000, 0.408418)">
                        <path d="M31.9998,16.0851 C31.9998,24.9215719 24.8362719,32.0851 15.9998,32.0851 C7.16332812,32.0851 -0.0002,24.9215719 -0.0002,16.0851 C-0.0002,7.24862812 7.16332812,0.0851 15.9998,0.0851 C24.8362719,0.0851 31.9998,7.24862812 31.9998,16.0851" id="Fill-1" stroke="#A766FE" stroke-width="2" fill="#FFE770"></path>
                        <g id="Group-18" transform="translate(6.000000, 9.000000)" fill="#403408">
                            <path d="M1.2491,6.64322462 C0.8971,6.64322462 0.5556,6.46205538 0.3696,6.13910154 C0.0946,5.66107077 0.2651,5.05454769 0.7501,4.78377846 L3.0016,3.52740923 L0.7196,2.25233231 C0.2346,1.98156308 0.0646,1.37454769 0.3401,0.897009231 C0.6151,0.418978462 1.2311,0.251593846 1.7166,0.522855385 L5.5471,2.66291692 C5.8636,2.83965538 6.0591,3.16999385 6.0586,3.52790154 C6.0586,3.88580923 5.8631,4.21614769 5.5471,4.39288615 L1.7461,6.51374769 C1.5891,6.60137846 1.4176,6.64322462 1.2491,6.64322462" id="Fill-4"></path>
                            <path d="M18.23795,6.63175385 C18.06795,6.63175385 17.89545,6.58892308 17.73745,6.49883077 L13.99495,4.35876923 C13.68695,4.18252308 13.49795,3.85858462 13.49795,3.50855385 C13.49795,3.15803077 13.68745,2.83409231 13.99545,2.65833846 L17.70845,0.537476923 C18.18545,0.265230769 18.79645,0.424738462 19.07295,0.8944 C19.34995,1.36406154 19.18745,1.96566154 18.71045,2.23790769 L16.48495,3.50904615 L18.73995,4.79889231 C19.21695,5.07113846 19.37895,5.67273846 19.10195,6.1424 C18.91695,6.45649231 18.58195,6.63175385 18.23795,6.63175385" id="Fill-6"></path>
                        </g>
                        <path d="M7.7738,17.6493785 C7.4278,17.6503631 7.1893,17.9949785 7.3203,18.3100554 C8.0018,19.9474708 10.2773,24.0700554 15.9218,24.0700554 C21.5633,24.0700554 23.8903,19.9189169 24.5928,18.2672246 C24.7273,17.9506708 24.4868,17.6016246 24.1383,17.6026092 L7.7738,17.6493785 Z" id="Fill-8" fill="#403408"></path>
                    </g>
                    <g id="Group-17" transform="translate(7.000000, 17.639188)">
                        <g id="Group-13">
                            <mask id="mask-2" fill="white">
                                <use xlink:href="#path-1"></use>
                            </mask>
                            <g id="Clip-12"></g>
                            <path d="M1.50295,0.23232 C1.18795,0.232812308 0.97095,0.325366154 1.08995,0.410043077 C1.71045,0.850658462 3.78345,1.95933538 8.92495,1.95933538 C14.06345,1.95933538 16.18345,0.842781538 16.82345,0.39872 C16.94595,0.313550769 16.72695,0.21952 16.40945,0.220012308 L1.50295,0.23232 Z" id="Fill-11" fill="#FFFFFF" mask="url(#mask-2)"></path>
                        </g>
                        <g id="Group-16" transform="translate(0.500000, 0.000000)">
                            <mask id="mask-4" fill="white">
                                <use xlink:href="#path-3"></use>
                            </mask>
                            <g id="Clip-15"></g>
                            <path d="M14.47605,8.14163692 C14.47605,9.95382154 11.72555,11.4228677 8.33255,11.4228677 C4.93955,11.4228677 2.18855,9.95382154 2.18855,8.14163692 C2.18855,6.32945231 4.93955,4.86040615 8.33255,4.86040615 C11.72555,4.86040615 14.47605,6.32945231 14.47605,8.14163692" id="Fill-14" fill="#D1212D" mask="url(#mask-4)"></path>
                        </g>
                    </g>
                </g>
                <rect id="Rectangle-25" fill-rule="nonzero" x="0" y="0" width="36" height="36"></rect>
            </g>
        </g>
    </g>
</svg>