<?xml version="1.0" encoding="UTF-8"?>
<svg width="24px" height="25px" viewBox="0 0 24 25" version="1.1" xmlns="http://www.w3.org/2000/svg" xmlns:xlink="http://www.w3.org/1999/xlink">
    <!-- Generator: Sketch 51.2 (57519) - http://www.bohemiancoding.com/sketch -->
    <title>Icon_google</title>
    <desc>Created with Sketch.</desc>
    <defs></defs>
    <g id="Symbols" stroke="none" stroke-width="1" fill="none" fill-rule="evenodd">
        <g id="Icon_google" fill="#FFFFFF" fill-rule="nonzero">
            <g id="Google">
                <path d="M12.168691,9.8242575 L12.168691,14.6757425 C12.168691,14.6757425 16.843878,14.6694355 18.747495,14.6694355 C17.71665,17.814532 16.1137565,19.5272275 12.168691,19.5272275 C8.176276,19.5272275 5.0602475,16.2690915 5.0602475,12.25 C5.0602475,8.2309085 8.176276,4.9727725 12.168691,4.9727725 C14.279537,4.9727725 15.642792,5.7196585 16.8932755,6.760666 C17.8942405,5.7530125 17.810626,5.6094085 20.357256,3.188396 C18.195446,1.2075345 15.322189,0 12.168691,0 C5.4480795,0 0,5.4844825 0,12.25 C0,19.015396 5.4480795,24.5 12.168691,24.5 C22.214126,24.5 24.6694305,15.6945545 23.8554535,9.8242575 L12.168691,9.8242575 Z"></path>
            </g>
        </g>
    </g>
</svg>