<?xml version="1.0" encoding="UTF-8"?>
<svg width="24px" height="24px" viewBox="0 0 24 24" version="1.1" xmlns="http://www.w3.org/2000/svg" xmlns:xlink="http://www.w3.org/1999/xlink">
    <!-- Generator: Sketch 51.2 (57519) - http://www.bohemiancoding.com/sketch -->
    <title>Icon_weather_snow</title>
    <desc>Created with Sketch.</desc>
    <defs></defs>
    <g id="Icon_weather_snow" stroke="none" stroke-width="1" fill="none" fill-rule="evenodd">
        <g id="Shape">
            <path d="M21,11 L17.83,11 L20.3653874,8.46461259 C20.7549363,8.0750637 20.7560516,7.44382497 20.3678816,7.05290203 L20.365,7.05 C19.9770127,6.65926097 19.3457302,6.65703029 18.9549912,7.04501764 C18.9541578,7.04584509 18.953326,7.04667402 18.9524956,7.04750442 L15,11 L13,11 L13,9 L16.9524956,5.04750442 C17.3418612,4.6581388 17.3418612,4.0268524 16.9524956,3.63748678 C16.9516652,3.63665638 16.9508333,3.63582746 16.95,3.635 L16.947098,3.6321184 C16.556175,3.24394844 15.9249363,3.2450637 15.5353874,3.63461259 L13,6.17 L13,3 C13,2.44771525 12.5522847,2 12,2 L12,2 C11.4477153,2 11,2.44771525 11,3 L11,6.17 L8.46461259,3.63461259 C8.0750637,3.2450637 7.44382497,3.24394844 7.05290203,3.6321184 L7.05,3.635 C6.65926097,4.02298735 6.65703029,4.6542698 7.04501764,5.04500883 C7.04584509,5.04584216 7.04667402,5.04667402 7.04750442,5.04750442 L11,9 L11,11 L9,11 L5.04750442,7.04750442 C4.6581388,6.6581388 4.0268524,6.6581388 3.63748678,7.04750442 C3.63665638,7.04833481 3.63582746,7.04916668 3.635,7.05 L3.6321184,7.05290203 C3.24394844,7.44382497 3.2450637,8.0750637 3.63461259,8.46461259 L6.17,11 L3,11 C2.44771525,11 2,11.4477153 2,12 L2,12 C2,12.5522847 2.44771525,13 3,13 L6.17,13 L3.63461259,15.5353874 C3.2450637,15.9249363 3.24394844,16.556175 3.6321184,16.947098 L3.635,16.95 C4.02298735,17.340739 4.6542698,17.3429697 5.04500883,16.9549824 C5.04584216,16.9541549 5.04667402,16.953326 5.04750442,16.9524956 L9,13 L11,13 L11,15 L7.04750442,18.9524956 C6.6581388,19.3418612 6.6581388,19.9731476 7.04750442,20.3625132 C7.04833481,20.3633436 7.04916668,20.3641725 7.05,20.365 L7.05290203,20.3678816 C7.44382497,20.7560516 8.0750637,20.7549363 8.46461259,20.3653874 L11,17.83 L11,21 C11,21.5522847 11.4477153,22 12,22 L12,22 C12.5522847,22 13,21.5522847 13,21 L13,17.83 L15.5353874,20.3653874 C15.9249363,20.7549363 16.556175,20.7560516 16.947098,20.3678816 L16.95,20.365 C17.340739,19.9770127 17.3429697,19.3457302 16.9549824,18.9549912 C16.9541549,18.9541578 16.953326,18.953326 16.9524956,18.9524956 L13,15 L13,13 L15,13 L18.9524956,16.9524956 C19.3418612,17.3418612 19.9731476,17.3418612 20.3625132,16.9524956 C20.3633436,16.9516652 20.3641725,16.9508333 20.365,16.95 L20.3678816,16.947098 C20.7560516,16.556175 20.7549363,15.9249363 20.3653874,15.5353874 L17.83,13 L21,13 C21.5522847,13 22,12.5522847 22,12 L22,12 C22,11.4477153 21.5522847,11 21,11 Z" fill="#A0D5FA" fill-rule="nonzero"></path>
            <polygon points="0 0 24 0 24 24 0 24"></polygon>
        </g>
    </g>
</svg>